<?xml version="1.0" encoding="UTF-8"?>
<svg viewBox="0 0 158 158" xmlns="http://www.w3.org/2000/svg">
 <defs>
  <linearGradient id="a" x1="22.273" x2="14.62" y1="68.103" y2="82.568" gradientUnits="userSpaceOnUse">
   <stop stop-color="#fdfb63" offset="0"/>
   <stop stop-color="#e2d94a" offset="1"/>
  </linearGradient>
  <linearGradient id="b" x1="351.58" x2="743.11" y1="584.52" y2="393.27" gradientTransform="matrix(0 .14602 -.18189 0 120.35 -39.192)" gradientUnits="userSpaceOnUse">
   <stop stop-color="#fff" offset="0"/>
   <stop stop-color="#fff" stop-opacity="0" offset="1"/>
  </linearGradient>
  <linearGradient id="c" x1="10.172" x2="108.68" y1="-10.386" y2="-126" gradientUnits="userSpaceOnUse">
   <stop stop-color="#fefdb7" offset="0"/>
   <stop stop-color="#f5f06c" offset="1"/>
  </linearGradient>
  <linearGradient id="f" x1="335.72" x2="353.75" gradientTransform="matrix(2.5278 2.5256 -2.5278 2.5256 565.91 -1456.1)" gradientUnits="userSpaceOnUse">
   <stop stop-color="#fff" stop-opacity=".82653" offset="0"/>
   <stop stop-color="#fff" stop-opacity="0" offset="1"/>
  </linearGradient>
  <linearGradient id="e" x1="331.72" x2="365.75" gradientTransform="matrix(2.5278 2.5256 -2.5278 2.5256 565.91 -1456.1)" gradientUnits="userSpaceOnUse">
   <stop stop-color="#fff" offset="0"/>
   <stop stop-color="#ffdd7c" offset="1"/>
  </linearGradient>
  <linearGradient id="d" x1="148.7" x2="185.48" gradientTransform="matrix(2.3454 2.3434 -2.3454 2.3434 888.99 -800.77)" gradientUnits="userSpaceOnUse">
   <stop stop-color="#ff9191" offset="0"/>
   <stop stop-color="#b55858" offset="1"/>
  </linearGradient>
 </defs>
 <g transform="matrix(1.8124 0 0 1.8055 -7.9049 -7.6659)">
  <path transform="rotate(90)" d="m6.02263-91.54307h85.09008a.31229,.32912 0 0,1 .31229.32912v85.44151a.31229,.32912 0 0,1 -.31229.32912h-85.09008a.31229,.32912 0 0,1 -.31229-.32912v-85.44151a.31229,.32912 0 0,1 .31229-.32912" fill="#d0c36b" fill-rule="evenodd"/>
  <path transform="rotate(90)" d="m4.7038-89.46861h83.99275a.30826,.32349 0 0,1 .30826.32349v83.97893a.30826,.32349 0 0,1 -.30826.32349h-83.99275a.30826,.32349 0 0,1 -.30826-.32349v-83.97893a.30826,.32349 0 0,1 .30826-.32349" fill="url(#c)" fill-rule="evenodd" stroke="#f6db32" stroke-width=".95761"/>
  <path d="m88.885 5.2927-40.834-0.15028-40.834-0.15028s-12.831 128.57 30.231 57.723 48.141-40.891 51.438-57.423z" fill="url(#b)" fill-rule="evenodd" opacity=".27778"/>
  <path transform="matrix(1.6192 0 0 1.5638 3.9559 3.6772)" d="m46.21912,46.1868c-.94977-.01835-1.89813.06684-2.84474.13425-.8908.06901-1.78377.09236-2.67689.09958-1.08439-.02243-2.16464-.09497-3.24487-.18701-1.39218-.11562-2.78455-.21992-4.1805-.27628-1.13659-.04776-2.27454-.02439-3.41119-.06261-1.03934-.01743-2.0682-.17656-3.09773-.30436-1.09943-.13658-2.19999-.25932-3.30176-.3769-.90725-.13145-1.81813-.22574-2.73352-.27251-.66121-.0292-1.32307-.02666-1.98473-.02641l-1.36478.00528c-.41285.03991-.82271.08125-1.23112.15237-.38661.05942-.77753.08556-1.16823.09693-.31873-.01695-.62648.02528-.93918.07703-.27678.04422-.55778.048-.83739.05377l-.95561.00117c-.32902.02311-.64869-.0184-.97248-.06765-.33628-.02738-.66313-.103-.98392-.20565-.42659-.18155-.87708-.27074-1.33488-.32473-.32327-.03389-.64847-.0361-.97312-.0358l-.84078.00249-.89494.00073c-.25635.01774-.52267-.03467-.77364.02661-.15823.04471-.32313.05823-.48614.07421l1.50234-1.1185c.16304-.02228.32425-.05296.4867-.07857 .26137-.00948.52305-.00155.78455-.00365l.89461-.00107 .84282-.00179c.32627.00467.65287.01701.97642.06254 .46303.06972.9139.18103 1.35255.34729 .32112.0869.64699.14246.97762.17866 .31621.04699.63229.05835.95203.0481 .31893-.00128.63795.00032.95679-.00839 .2759-.00926.55175-.02499.82398-.07389 .31435-.0469.62928-.05223.9468-.05517 .38556-.01798.77116-.04573 1.15158-.11422 .41329-.06613.8315-.1036 1.24916-.12774l1.35696.00129c.6566.00315 1.3134.01616 1.9692.04937 .91355.05207 1.82007.16442 2.72634.28946 1.10282.11899 2.20334.25458 3.30554.37808 1.02396.1288 2.04838.27674 3.08209.2945 1.13358.02929 2.26823.01602 3.40116.07299 1.39533.06642 2.78695.18022 4.17984.28452 1.08694.08017 2.17507.1369 3.26506.15209 .88705-.01441 1.77407-.03775 2.65932-.09933 .9679-.06341 1.93551-.13986 2.90548-.16312l-1.51681,1.10203z"/>
  <path transform="matrix(1.6192 0 0 1.5638 3.9559 3.6772)" d="m44.8019,52.12004c-1.41052.10223-2.82196.18743-4.23488.25026-1.51476.04555-3.0232-.08167-4.52558-.25854-1.02978-.13851-2.06627-.20653-3.10413-.24068-.95622-.03422-1.91328-.07402-2.86832-.13476-1.01368-.07233-2.02927-.10626-3.04519-.12372-.58543-.03032-1.16462.0027-1.746.06262-.45538.10418-.92171.12538-1.38339.18373-.52627.077-1.05801.10252-1.58903.11931-.49142.01342-.98302.01258-1.47457.0128-.50544.0071-1.00879.0668-1.51388.09331-.50748.02291-1.01553.02929-1.52346.03193-.44301.01616-.88558-.03011-1.32228-.10183-.50225-.09031-1.00341-.18668-1.50572-.27743-.53532-.13972-1.0768-.24139-1.6198-.34481-.54298-.13289-1.07712-.30093-1.61438-.45633-.37029-.12822-.76079-.15288-1.14297-.21964-.36935-.04858-.73508-.11713-1.10365-.17077-.35453-.01361-.69666-.10797-1.04707-.15132-.36081-.02816-.7196-.03988-1.07845-.08838-.31007-.03956-.61861-.0578-.92444-.12275-.20274-.04564-.40966-.06294-.61663-.0743l1.52436-1.09079c.21134.01887.42138.04744.62852.09457 .3012.05624.60831.06651.91074.11624 .35989.0429.72256.03982 1.08194.08864 .34799.05373.69197.13096 1.04427.15599l1.10612.17023c.38819.05393.77312.12104 1.14629.24568 .53248.15335 1.059.33284 1.60252.44287 .544.09975 1.08059.22496 1.62055.34344 .50127.09295 1.00254.1867 1.50554.26945 .43336.05553.86839.09609 1.30592.07899 .50474-.00354 1.00969-.00794 1.51377-.03657 .50778-.03148 1.01457-.09254 1.52383-.08757 .48917-.00021.97846-.00077 1.46745-.01563 .5285-.02075 1.05621-.05667 1.58012-.13201 .4654-.05263.92983-.10632 1.39173-.18518 .57512-.05443 1.14958-.04502 1.72668-.02119 1.01486.02542 2.02922.06431 3.04212.13428 .95775.05113 1.91631.09338 2.87486.12541 1.03299.04388 2.06424.12407 3.08839.26962 1.48468.17507 2.9753.31481 4.47268.26098 1.44871-.06995 2.89495-.17133 4.33832-.3154l-1.51294,1.09921z"/>
  <path d="m4.8633 66.629c9.1343 4.4101 17.988 0.99739 17.594 1.1975 0.09759 0.33211-0.65963 15.565 11.559 21.202-17.718-0.13027-29.153-10.177-29.153-22.4z" fill="url(#a)" fill-rule="evenodd" stroke="#f8df37" stroke-opacity=".375" stroke-width=".95775"/>
 </g>
 <path transform="matrix(2.8554 0 0 2.7845 -.71538 -.43063)" d="m5.58486,4.32397c.52103.05339 1.043.07487 1.56297.13878 .46597.05703.92656.15274 1.38986.22867 .61352.09624 1.22715.17375 1.8471.21301 .74212.03742 1.48545.0384 2.22832.04086l2.38867.00245 3.01126.002 3.22854.0017c1.19154.02467 2.38148-.01413 3.57187-.05889 1.36794-.0427 2.73661-.06127 4.105-.03656 1.47601.04236 2.95232.07017 4.42887.08331 .86409.00579 1.7281.02872 2.59011-.03955 .47568-.04234.94201-.14073 1.4185-.17981 .80524-.04956 1.61123-.01468 2.41621.01833 1.41911.06622 2.8329.19181 4.24654.32956 1.52171.16826 3.04794.29494 4.57451.41019l.50273.03356-1.47676,1.0554-.48975-.04414c-1.51637-.14123-3.0338-.27161-4.5484-.43083-1.42103-.12747-2.84267-.24588-4.26876-.30033-.8162-.02002-1.6343-.03738-2.44877.03417-.47145.05024-.93718.14682-1.41159.16838-.85365.04596-1.70789.00716-2.56225.00087l-4.40479-.10063c-1.37553-.01429-2.75118.01432-4.1259.06306-1.19259.0431-2.38495.06728-3.57845.05545l-3.2333.00177-3.01857.00343c-.79945.00395-1.59891.00716-2.39838.00374-.74732-.00235-1.4951-.00428-2.2415-.04589-.62613-.04491-1.24649-.12604-1.867-.22037-.46231-.07566-.92305-.16377-1.38811-.22063-.52252-.06332-1.04807-.08437-1.5725-.12704l1.52372-1.08401z"/>
 <path transform="matrix(2.8554 0 0 2.7845 -.71538 -.43063)" d="m6.35121,16.67634c1.52051-.01276 3.03977-.07117 4.55912-.12778 1.22329-.01351 2.4378-.15554 3.65464-.26183 .89465-.11638 1.79433-.1727 2.69535-.20534 1.09258-.04941 2.1843.02964 3.27405.09925 .91242.07223 1.82827.08066 2.74134.13752 .77055.0556 1.54249.08606 2.31477.10228 .56387.00868 1.12784.00919 1.69177.01049l2.4033.00807 2.2916-.00815c.98191.0071 1.96383.01224 2.94577.01181 .94323.02227 1.88529.06401 2.82578.13793 .79756.07952 1.58955.20228 2.38685.28389 .51913.05487 1.04108.06441 1.56253.07228 .67638.04298 1.35298.08109 2.03028.10574s1.35096.02248 2.0265.02118l1.41269-.00682 1.13853-.00068 .17663-.00059-1.50975,1.09691-.17502-.00057-1.13746,4e-005-1.3954-.00636c-.67841-.0041-1.35702-.0018-2.03518-.02326-.67521-.02781-1.34887-.08664-2.02459-.1033-.52501-.00264-1.04963-.01611-1.57052-.08946-.79124-.09554-1.57931-.2167-2.37358-.28611-.93082-.07406-1.86383-.11874-2.79736-.14075-.99278-.00044-1.98552.00477-2.97827.01182l-2.26984-.00761-2.42806.00973c-.56372.00063-1.12754.00117-1.69104-.01698-.76931-.02503-1.53784-.06684-2.306-.11553-.90566-.04768-1.81222-.07801-2.71616-.15699-1.09349-.06975-2.18919-.12215-3.28488-.06862-.89818.0361-1.7937.10526-2.68665.21005-1.19885.10528-2.39798.20604-3.60271.21219-1.55372.05349-3.10752.11212-4.66003.19335l1.511-1.09781z"/>
 <path transform="matrix(2.8554 0 0 2.7845 -.71538 -.43063)" d="m7.19269,22.86141c.98676.02885 1.9742.02364 2.96125.01763 .81972-.00704 1.63948-.00498 2.45922-.00378 .85545.00621 1.71134-.01587 2.56622.01892 1.09613.04853 2.18393.21115 3.27116.3519 .95086.11721 1.89725.26224 2.85279.33697 .68566.04644 1.37319.04805 2.06009.04772l1.68512-.00183c.79212.02031 1.58255-.01841 2.37349-.05501 .81044-.01581 1.61645-.10128 2.42539-.14458 .66616-.03526 1.33304-.04999 2.00004-.05415 .74041-.01207 1.48041.03668 2.21757.10197 1.11198.15664 2.22682.27488 3.34746.34657 .70499.04183 1.41115.0523 2.11717.05723l1.4742-.00337c.46185.01866.91998-.04466 1.3792-.08356 .34421-.08234.70072-.10215 1.0453-.17725 .28746-.06894.58061-.10241.87542-.11458s.57646-.01003.86472-.01017c.40228.00685.80492-.00792 1.20598.02597 .2216.01546.43945.03908.65704.08273l-1.52731,1.06828c-.21145-.03407-.42361-.05732-.63759-.06984-.40423-.01636-.80857-.00759-1.21304-.00626-.28548.00041-.57123.00044-.85627.01843s-.57585.06998-.86014.13083c-.34941.05281-.69786.11238-1.04838.15694-.46201.03922-.9234.08894-1.388.07099l-1.46988-.00225c-.69597-.00743-1.39092-.04505-2.08519-.09361-1.12542-.0814-2.24534-.20899-3.36632-.33566-.74031-.0525-1.48209-.09872-2.22465-.07705-.66113.00646-1.32246.01583-1.98273.05286-.80618.05036-1.61108.12042-2.41906.13744-.79851.03801-1.59663.07471-2.39637.06138-.56233.00241-1.12468.00688-1.68701.00193-.68696-.00615-1.37488-.01147-2.06003-.06651-.94573-.09088-1.88213-.248-2.82457-.36603-1.0911-.13829-2.18394-.28519-3.28428-.32172-.8552-.0231-1.71078-.00674-2.56622-.01129l-2.44881-.00378c-1.00324-.00621-2.00682-.01038-3.00979.01763l1.51681-1.10203z"/>
 <path transform="matrix(2.8554 0 0 2.7845 -.71538 -.43063)" d="m7.22096,29.42881c1.12356.03344 2.24784.02613 3.37171.0182l2.01151-.01388 1.86453.00566 2.77235.00767 4.11699.01209c1.33059.00265 2.66121-.00326 3.99175-.01461 .59669.01224 1.18924-.06736 1.78334-.10875 .51345-.04948 1.02578-.00404 1.53594.05634 .7959.13363 1.59705.23156 2.39602.3443 1.08103.13643 2.16399.2516 3.24175.41289 1.11773.17768 2.23153.37968 3.35149.54314 .60805.05577 1.19733.21398 1.78989.35151 .84515.16254 1.68881.33086 2.54226.44391 .52959.06666 1.06292.08825 1.59617.09368 .50808.00692 1.01619.0034 1.52427-.00075 .33143-.03029.65432.03673.98039.08134 .1503.0178.30149.02403.45257.03073l-1.51528,1.08949c-.15661-.00854-.3132-.0173-.46846-.04105-.31639-.04833-.63166-.0867-.95294-.06737l-1.52766-.00168c-.53111-.01437-1.06123-.04966-1.58728-.1278-.85467-.12935-1.70214-.30055-2.55271-.45378-.58945-.12414-1.17533-.26871-1.77308-.34933-1.11019-.18583-2.21747-.38964-3.33094-.55548-1.08392-.15591-2.17289-.26432-3.2596-.39822-.80262-.10694-1.60538-.21247-2.40663-.32928-.51045-.04498-1.02121-.06879-1.53261-.01915-.58514.04192-1.17076.09599-1.75817.07426-1.31714-.0115-2.63435-.01724-3.95154-.01461l-4.15026.01208c-.93116.00224-1.86231.00393-2.79346.00767l-1.88011.00566-1.97329-.01388c-1.14059-.00821-2.28153-.01426-3.42183.01821l1.51294-1.09921z"/>
 <path transform="matrix(2.8554 0 0 2.7845 -.71538 -.43063)" d="m6.09868,37.00566c.10337.00239.20675.01002.3101.00717 .14069-.00389.88244-.05943.98731-.06712l1.66609-.12668c1.12415-.08463 2.24727-.18284 3.37339-.23806 1.05998-.06577 2.12018-.04812 3.18038-.00703 .76576.01238 1.52847.06844 2.2922.11962 .90411.06724 1.80745.13314 2.71364.16736 1.1467.07491 2.29484.11793 3.44362.1415 .95561.01612 1.91137.01746 2.86709.01928 1.17649.00476 2.35299.00567 3.52949.0064l3.54987-.00657 2.86472-.0009c.87483.01093 1.74503.08848 2.61597.16208s1.75079.06304 2.62423.14368c.75102.05331 1.49257.17868 2.23533.29535 .73195.12177 1.47124.17735 2.20806.25769 .34332.05152.68621.1054 1.02976.15536l-1.50764,1.06113c-.33896-.05336-.6772-.11182-1.01786-.15372-.74044-.07627-1.48163-.14418-2.21698-.26296-.73445-.11731-1.46907-.2352-2.21091-.29659-.87801-.06936-1.75879-.06409-2.63675-.13509-.86278-.07759-1.72578-.15547-2.593-.15906l-2.86226-.00087c-1.17761-.00426-2.35523-.00791-3.53285-.00574s-2.36639.0037-3.54958.0079c-.95444-.00029-1.90902-.00123-2.86319-.02739-1.14897-.03325-2.29728-.08191-3.44511-.14307-.91391-.03231-1.82527-.09579-2.73754-.15739-.75916-.05346-1.51842-.09553-2.27902-.12296-1.05141-.04637-2.10264-.05742-3.1539.00879-1.12621.063-2.25018.15729-3.37458.24614-1.0059.08118-2.01308.16666-3.02109.20959l1.511-1.09781z"/>
 <path transform="matrix(2.8554 0 0 2.7845 -.71538 -.43063)" d="m6.70175,11.11909c.50673.00866 1.01358.00716 1.52036.00552l1.37248-.00025 1.3117-.00246 1.14263-.00089 .92242-.00189c.28614-.0161.5646.05519.84788.08609 .33381.03215.6694.03737 1.00449.04055l.86137.00151c.52145.01363 1.04127-.04251 1.56129-.07516s1.04347-.04121 1.56553-.04818c.38197.00348.75968.00511 1.13789-.04902 .32392-.04344.64981-.0674.97639-.07588 .37803-.00568.75617-.00451 1.13424-.00402 .55163.00144 1.10323.00681 1.65486.00657l1.66932-.00464c.52838-.00495 1.05705.0189 1.58453-.01587 .5596-.02811 1.11302-.11496 1.66894-.1801 .386-.02335.76699-.07795 1.15052-.12381 .39486-.04702.79277-.0541 1.18992-.05688 .45324-.04058.90552-.09063 1.36027-.11089 .48871-.02007.97803-.0162 1.46704-.01513l1.57014-.0013 1.90367.0039c.67318.00192 1.34445.06539 2.0169.09518 .616.06032 1.2328.10811 1.85117.13492 .385.02848.77396-.01166 1.15687.03805 .4093.04644.81817.06978 1.22447.13813 .42041.05776.84468.09985 1.2594.19192 .34378.07538.67476.19099 1.02422.24083 .37258.03874.74777.03953 1.12195.0412 .42001.04449.8402.08388 1.26202.10589 .2242.03077.44896.05662.67394.08079l-1.51447,1.07536-.67406-.06976c-.41828-.02919-.83487-.07805-1.25358-.09966-.38235-.00382-.76639-.00281-1.1454-.06072-.3458-.06584-.67759-.18404-1.02338-.25013-.4164-.07942-.83737-.12648-1.25706-.18395-.40417-.06376-.81253-.08498-1.2194-.12644-.37926-.02204-.76007-.0125-1.13924-.04048-.61474-.03521-1.22757-.09328-1.84139-.14092-.67075-.03173-1.34069-.09517-2.01264-.08787l-1.91356.00317-1.56497-.0018c-.49049.00334-.98124.00529-1.47123.03013-.45482.02922-.90796.07785-1.36293.1041-.39495.01017-.79042.02366-1.18245.07653-.381.05039-.76273.08466-1.14558.11772-.55571.06309-1.11.14213-1.66941.16594-.53263.02039-1.06581.01067-1.59876.01434-.55204-.00257-1.10408-.00516-1.65612-.00501l-1.67083.00516c-.37865.00069-.75743-.00063-1.13588.01395-.32289.01626-.64503.04286-.96541.08719-.3803.03877-.76174.02288-1.14349.02758-.51703.0047-1.03412.01595-1.55023.04904-.528.03428-1.05551.0868-1.58523.07818l-.86448-.00319c-.33848-.00775-.67746-.01839-1.01412-.05652-.27894-.03434-.55627-.08369-.83874-.06602l-.9172-.00189-1.14018-.00089-1.30493-.00246-1.3718-.00025-1.53556.00552 1.51487-1.10062z"/>
 <g transform="matrix(.30267 -.04723 -.00103 .29919 -28.489 -44.568)">
  <path d="m567.38 303.44c-23.742-23.722-49.662-36.328-57.815-28.183-0.55331 0.55283-1.0367 1.1772-1.4014 1.8869l-51.662 51.617 7.7981 7.7914 30.339 30.313 9.7477 9.7392 38.137 38.104 53.368-53.322c-0.02955-0.09589-0.03059-0.20765-0.06082-0.30424l-0.06095-0.06089 0.0608-0.06074c7.6851-8.4004-4.934-34.025-28.451-57.522z" fill="url(#d)"/>
  <path d="m470.45 314.82-48.312 48.269-5.5439 5.5391 7.7981 7.7913 78.224 78.156 53.855-53.808-43.011-42.974-35.213-35.182-7.7981-7.7914z" fill="#e3dedb"/>
  <path d="m538.99 418.24-86.022-85.948-3.899 3.8956-1.9496 1.9479 86.022 85.948 1.9496-1.9479 3.8989-3.8956z"/>
  <path d="m548.74 408.5-86.022-85.948-3.8991 3.8957-1.9496 1.9479 86.023 85.948 1.9496-1.9479 3.8991-3.8957z"/>
  <path d="m529.24 427.98-86.022-85.948-3.899 3.8956-1.9495 1.9478 86.023 85.948 1.9495-1.9478 3.899-3.8956z"/>
  <path d="m429.21 356.03-184.9 184.74-34.969 120.89 10.966-3.1651 110.03-31.774 184.9-184.74-16.693-16.678-5.8485-5.8434-15.596-15.583-1.9496-1.9479-5.8485-5.8434-1.9496-1.9479-15.596-15.582-5.8487-5.8436-8.8946-8.8868-7.7981-7.7914z" fill="url(#e)"/>
  <path d="m256.88 647.93-16.902-16.887-16.902-16.887-13.742 47.503 47.545-13.73z"/>
  <path d="m595.82967,361.08194c.03023.09659.03127.20835.06082.30424l.12184-.12173-.18266-.18251z" fill="#ff9191"/>
  <path d="m429.21 356.03-184.9 184.74 41.728 1.2819 1.283 41.692 41.728 1.2819 1.283 41.692 184.9-184.74-21.506-21.487-21.506-21.487-21.506-21.487-21.506-21.487z" fill="#ffc700"/>
  <path d="m429.21 356.03-184.9 184.74 41.728 1.2819 164.68-164.53-21.506-21.487z" fill="#ffda00"/>
  <path d="m329.05 585.02 1.283 41.692 184.9-184.74-21.506-21.487-164.68 164.53z" fill="#ff8a00"/>
  <path d="m287.32 583.74 41.728 1.2819 164.68-164.53-21.506-21.487-184.9 184.74z" fill="#ffa100"/>
  <path d="m491.1 336.97c-1.5574-1.556-3.3714-2.7737-5.2926-3.5516s-3.961-1.105-6.0036-1.105-4.0823 0.32696-6.0036 1.105-3.7353 1.9957-5.2926 3.5517l-29.228 29.203-173.55 173.4c-0.53909 0.53862-0.74357 1.2338-1.1849 1.8153l21.487 0.63141 1.2639 41.673 24.646 0.78925 172.92-172.77 29.228-29.203c1.5573-1.556 2.7761-3.3684 3.5548-5.288s1.1059-3.9576 1.1059-5.9984-0.32725-4.0788-1.1059-5.9984-1.9974-3.7321-3.5548-5.288l-22.987-22.967z" fill="url(#f)"/>
  <path d="m239.98 631.04-11.245-11.23-19.398 41.847 30.643-30.616z" fill="#fff" opacity=".8"/>
 </g>
</svg>
