<?xml version="1.0" encoding="utf-8"?>
<!-- Generator: Adobe Illustrator 24.3.0, SVG Export Plug-In . SVG Version: 6.00 Build 0)  -->
<svg version="1.1" id="Camada_1" xmlns="http://www.w3.org/2000/svg" xmlns:xlink="http://www.w3.org/1999/xlink" x="0px" y="0px"
	 viewBox="0 0 2000 2000" style="enable-background:new 0 0 2000 2000;" xml:space="preserve">
<style type="text/css">
	.st0{fill:none;stroke:#211915;stroke-width:2.3621;stroke-miterlimit:22.9256;}
	.st1{fill-rule:evenodd;clip-rule:evenodd;fill:#F1CF00;}
	.st2{fill-rule:evenodd;clip-rule:evenodd;fill:#FEEE00;}
	.st3{fill-rule:evenodd;clip-rule:evenodd;fill:#FFFFFF;}
	.st4{fill:none;stroke:#888577;stroke-width:2.3621;stroke-miterlimit:22.9256;}
	.st5{fill-rule:evenodd;clip-rule:evenodd;fill:#955287;}
	.st6{fill-rule:evenodd;clip-rule:evenodd;fill:#BA007C;}
	.st7{fill-rule:evenodd;clip-rule:evenodd;fill:#C2C3C8;}
	.st8{fill-rule:evenodd;clip-rule:evenodd;fill:#001D7E;}
	.st9{fill-rule:evenodd;clip-rule:evenodd;fill:#E2B2B5;}
	.st10{fill-rule:evenodd;clip-rule:evenodd;fill:#009045;}
	.st11{fill-rule:evenodd;clip-rule:evenodd;fill:#434142;}
	.st12{fill-rule:evenodd;clip-rule:evenodd;fill:#F1DCDC;}
	.st13{fill-rule:evenodd;clip-rule:evenodd;fill:#AEADB3;}
	.st14{fill-rule:evenodd;clip-rule:evenodd;fill:#BF0411;}
	.st15{fill-rule:evenodd;clip-rule:evenodd;fill:#ECEDEF;}
	.st16{fill-rule:evenodd;clip-rule:evenodd;fill:#009BDB;}
</style>
<g>
	<polygon class="st0" points="-0.56,0.15 1999.37,0.15 1999.37,2000.07 -0.56,2000.07 -0.56,0.15 	"/>
	<polygon class="st1" points="-0.56,0.15 1999.37,0.15 1999.37,2000.07 -0.56,2000.07 -0.56,0.15 	"/>
	<path class="st2" d="M1999.37,35.72v445.02H-0.56V35.72H1999.37L1999.37,35.72z M1999.37,508.81v445.02H-0.56V508.81H1999.37
		L1999.37,508.81z M1999.37,981.9v445.02H-0.56V981.9H1999.37L1999.37,981.9z M1999.37,1454.99v445.02H-0.56v-445.02H1999.37
		L1999.37,1454.99z M1999.37,1928.08v71.99H-0.56v-71.99H1999.37L1999.37,1928.08z"/>
	<polygon class="st3" points="526.26,589.56 1973.87,295.34 1999.37,420.79 1999.37,2000.07 812.95,2000.07 526.26,589.56 	"/>
	<path class="st4" d="M634.51,756.07L1945.57,489.6 M661.81,890.42l1311.06-266.47 M689.12,1024.77L2000.18,758.3 M716.42,1159.12
		L2000.2,898.19 M743.73,1293.47l1256.47-255.38 M771.04,1427.82l1229.16-249.83 M798.35,1562.17l1201.85-244.27 M825.65,1696.52
		l1174.55-238.72 M852.96,1830.87l1147.24-233.17 M880.26,1965.22l1119.94-227.63"/>
	<polygon class="st5" points="308.2,800.62 350.33,693.96 398.38,756.62 371.18,825.5 308.2,800.62 	"/>
	<path class="st6" d="M223.52,861.6c7.44-18.83,28.94-28.16,47.77-20.72l12.09,4.78l21.86-55.35l75.13,29.67l-21.86,55.35
		l12.09,4.78c18.84,7.44,28.16,28.93,20.72,47.77c-81.69,206.81-163.02,413.88-244.47,620.89l-53.04,33.38l-19.18-30.47
		l-38.88,24.46c-10.94,12.32-23.65,25.16-37.92,38.28v-181.44L223.52,861.6L223.52,861.6z"/>
	<polygon class="st7" points="-2.17,1691.72 498.85,1103.87 592.77,1183.92 -2.17,1881.97 -2.17,1691.72 	"/>
	<path class="st8" d="M717.93,928.18c30.62,26.09-39.16,170.61-155.86,322.88l-108.99-92.89l-1.97-1.67l-17.09-14.57
		C464.01,1109.98,676.81,893.13,717.93,928.18L717.93,928.18z"/>
	<path class="st8" d="M434.02,1141.92c-104.75,122.94-182.58,230.92-181.85,251.39l200.62-235.39L434.02,1141.92L434.02,1141.92z"/>
	<path class="st8" d="M415.93,1136.19L415.93,1136.19c2.59-3.03,7.18-3.4,10.21-0.82l147.04,125.33c3.03,2.59,3.4,7.18,0.81,10.22
		l0,0c-2.59,3.03-7.18,3.4-10.21,0.81L416.75,1146.4C413.71,1143.82,413.35,1139.22,415.93,1136.19L415.93,1136.19z"/>
	<polygon class="st9" points="-2.17,1832.34 676.54,1233.25 879.52,1159.4 777.2,1347.28 37.31,2000.37 -2.17,1955.64 
		-2.17,1832.34 	"/>
	<polygon class="st10" points="790.2,1191.9 879.52,1159.4 834.5,1242.07 818.17,1223.58 790.2,1191.9 	"/>
	<polygon class="st10" points="-2.17,1832.34 676.54,1233.25 739.48,1210.35 722.11,1243.12 705.59,1274.35 706.25,1275.1 
		739.29,1262.58 776.77,1248.38 758.01,1283.78 741.48,1315.01 742.51,1316.17 775.53,1303.64 807.59,1291.49 777.2,1347.28 
		37.31,2000.37 -2.17,1955.64 -2.17,1832.34 	"/>
	<polygon class="st11" points="-2.17,1896.78 783.21,1504.3 998.35,1485.06 851.2,1640.36 131.4,2000.07 -2.17,2000.07 
		-2.17,1896.78 	"/>
	<polygon class="st12" points="784.69,1504.17 998.35,1485.06 852.22,1639.29 784.69,1504.17 	"/>
	<polygon class="st11" points="903.68,1493.53 998.35,1485.06 933.6,1553.4 922.57,1531.33 903.68,1493.53 	"/>
	<polygon class="st13" points="-2.17,1930.53 32.58,2000.07 -2.17,2000.07 -2.17,1930.53 	"/>
	<polygon class="st9" points="-2.17,1885.65 821.9,1738.42 1033.7,1780.8 848.65,1888.15 222.2,2000.07 -2.17,2000.07 
		-2.17,1885.65 	"/>
	<polygon class="st14" points="940.5,1762.15 1033.7,1780.8 952.27,1828.04 947.93,1803.75 940.5,1762.15 	"/>
	<polygon class="st14" points="-2.17,1885.65 821.9,1738.42 887.57,1751.56 855.7,1770.54 825.36,1788.63 825.54,1789.62 
		860.27,1796.09 899.67,1803.43 865.24,1823.93 834.9,1842.02 835.17,1843.55 869.9,1850 903.6,1856.27 848.65,1888.15 
		222.2,2000.07 -2.17,2000.07 -2.17,1885.65 	"/>
	<polygon class="st15" points="-2.17,1642.54 204.15,1512.71 419.72,1855.27 189.61,2000.07 -2.17,2000.07 -2.17,1642.54 	"/>
	<path class="st16" d="M-2.17,1614.42c14.27-13.12,26.98-25.96,37.92-38.28l38.88-24.46l253.92,403.5l-31.43,19.78
		c-21.35,5.87-45.09,14.32-70.38,25.12H-2.17V1614.42L-2.17,1614.42z"/>
</g>
</svg>
