<?xml version="1.0" encoding="UTF-8"?>
<svg viewBox="0 0 291.10696 189.79175" xmlns="http://www.w3.org/2000/svg">
 <g transform="matrix(1.25 0 0 -1.25 -13.48 799.71)">
  <g transform="matrix(1.1852 0 0 1.1852 -1.9971 -111.45)">
   <path d="m10.784 574.55c0.717-1.877 37.586-68.822 37.586-68.822l158.91 48.662-67.633 75.831-128.86-55.671" fill="#909dd7"/>
   <path d="m10.784 575.83c0.717-1.878 37.586-68.823 37.586-68.823l158.91 48.663-67.633 75.831-128.86-55.671" fill="#909dd7"/>
   <path d="m44.424 545.79 8.048-18.488 104.3 25.901v9.798l-112.35-17.211" fill="#f9a749"/>
   <path d="m83.51065,619.71274c1.81.442 3.445.232 5.255.674 .594.543-.194,1.222.16,1.786l4.382.656c.289-.58 0-1.42.791-1.757l.334.277c.37-.227 1.717.144 2.133.775 4.544,3.866 12.498,6.707 19.434,5.186 1.623-.155 3.577-.715 5.109.255l.035-.165c10.418,2.128 21.063,4.293 31.953,6.437l.936-54.851c.008-3.24.084-7.153.1-10.789-.308-.045-.884.037-1.053-.272-.842.214-1.945.164-2.699-.006l-.371.229c-13.807-.818-27.143-.542-40.954-1.36-1.669-.706-3.702-.498-4.56-1.65 1.983-.329 4.371.37 6.074-.854 .467-.667-.23-1.113-.338-1.698-5.127-1.964-12.693-3.325-17.653-1.395-.414.79-.048,1.642.634,2.144 1.207.293 2.348.519 2.924,1.517 .04.176-.254.416.105.584l-.433.161c-16.992-4.365-33.427-9.442-50.597-13.72l-21.094,55.412-3.011,7.452c.029.232.278.894.653,1.348 11.616-3.263 25.053,1.366 35.22,5.675 9.292,2.19 18.707,1.666 26.531-2.051" fill="#1f57af"/>
   <path d="m89.561 613.97 5.616-42.321 0.112-0.496c-14.235 3.952-28.966-3.431-38.625-10.734-0.828-0.92-2.165-1.348-2.867-2.477-4.234 16.142-11.668 30.95-16.289 46.693l-3.203 7.595c12.836-0.525 22.343 8.181 35.263 5.851 6.839-1.078 12.872-4.269 19.993-4.111" fill="#fff"/>
   <path d="m144.86 623.73c0.902-16.184 1.676-31.423 2.594-47.664l0.489-2.202c-6.646 2.359-14.031 2.334-21.212 2.795-8.947-0.149-20.155-0.861-27.01-5.412-1.496 6.712-1.974 14.204-2.84 21.297l-2.676 24.847c5.545 5.437 16.358 8.991 25.454 7.056 8.119-1.116 16.137-3.214 25.201-0.717" fill="#fff"/>
   <path d="m162.21165,624.68074c1.106-2.11-.445-6.208 4.126-6.035 3.91-2.2 7.033-4.803 7.865-8.546-5.682-.17-9.33,4.062-11.911,7.088-.681-.16-1.894-.057-1.89-.796 .742-4.039 2.346-7.667 5.594-10.478 6.709.21 13.023-3.508 16.637-7.231l.464-2.091c-5.783-1.152-11.398,1.93-15.378,4.803l-2.766,2.429c-1.518-.682-.66-2.033-.311-2.891 2.94-3.198 8.541-5.146 11.698-8.255 3.15-2.372 5.506-5.088 6.291-8.61-.482-.698-.629-1.459-1.442-2.094-5.732-1.029-9.113,4.151-14.58,4.071l.086-.384c6.604-5.38 19.547-7.82 22.975-14.983 .102-.837-.12-1.61-.846-2.288-.667-.554-2.014-.586-2.884-.601-4.509.971-5.697,5.23-10.524,5.133 1.14-3.697 7.966-5.062 10.583-8.252l.087-.387-1.102-.05c-5.168,1.783-9.276,4.524-10.969,8.194 .438.179.659.61.752.909l-.19.141c1.395,1.234 3.421.343 5.047.189 3.301-1.269 5.619-3.822 9.053-4.614-.153,2.477-3.917,3.676-6.706,5.135-6.653,3.099-16.212,6.045-16.908,12.026 .118.529.503.586 1.083.844 5.61.499 9.616-3.563 14.834-4.147 1.702,1.279-1.028,2.122-.737,3.301-5.106,6.515-21.187,9.11-17.638,18.512l.776.799c-2.959,3.65-5.899,8.272-4.19,12.736 .389.401 1.029.382 1.633.529-.055-.122.125-.208.213-.252l.387.057c-.337,3.645-2.295,7.789.619,11.124l.656.269c-.528-1.556-.649-3.509-.487-5.304zm2.807-7.597c1.618-1.918 3.263-3.947 6.569-4.873-1.246,2.03-3.571,3.9-6.569,4.873zm4.434-13.836c3.3-2.692 8.447-4.023 12.423-6.157l.128.132c-2.582,3.027-7.835,5.196-12.551,6.025" fill="#1f57af"/>
   <path d="m113.56 558.88c1.469-6.206 3.229-11.8 4.363-17.658-4.685-1.498-10.568-2.208-15.55-3.523l-47.731-11.418c-0.892-0.19-1.643-0.645-2.656-0.683-2.483 6.567-5.039 13.462-7.56 20.193l59.755 11.284c3.103 0.579 6.291 1.171 9.379 1.805" fill="#1f57af"/>
   <path d="m159.06765,564.61374c-.207-4.411-.687-8.746-.553-13.163-13.74-2.855-27.408-6.039-41.71-7.899-.254,1.158-.454,2.038-.673,3.027 12.513,3.013 24.817,5.823 37.909,8.525 .775,1.877.062,3.932.574,5.829-13.546-2.199-26.69-5.82-40.901-7.323l-.283,2.403c14.695,2.771 30.581,5.548 45.637,8.601" fill="#1f57af"/>
   <path d="m181.34565,563.71474c1.7.768 3.402-.002 4.599-.789 .69-.807.619-2.011-.814-2.455-1.739-.6-2.909.078-4.371.142-2.295-2.675-4.368-6.738-10.079-6.684-4.789-.661-6.54,3.001-11.131,2.995 .267.325-.281.87.38.967 4.625.239 8.128-3.274 13.05-1.684 4.072,1.578 4.282,7.125 10.123,5.723l.573.486c-.94,1.167-3.118-.126-4.546.171-4.374-.598-8.273,3.141-12.321.315-1.372-1.854-4.452-2.544-7.421-2.589l-.144.659c5.454-.435 6.408,4.827 11.984,4.243 3.176-.892 6.375-1.89 10.118-1.5" fill="#1f57af"/>
   <path d="m110.48565,552.43574c1.119-1.594 2.481-3.494 2.215-5.353-.317-.105-.749.682-1.179-.064l-9.215-1.779-41.46-8.724-2.677-.74c-.075,3.4-.71,6.099-3.641,8.56 17.346,3.849 35.035,7.696 53.252,10.311l2.705-2.211" fill="#f9a749"/>
   <path d="m171.73565,561.02374c2.001.188 3.467.861 5.481.993l.121-.551c-1.709-1.109-6.228-.307-5.985-2.546-.617-.662-1.469-1.413-2.517-1.287-1.557.108-1.534,1.533-1.189,2.266 .357,1.079 3.361,3.632 4.089,1.125" fill="#fcd09b"/>
   <path d="m170.25665,560.40474c-.245-.037-.505-.02-.632-.209 1.131-.114.606-.818.267-1.211 .247.437-.496.326-.414.337-.166.372-.315,1.033.447,1.432l.332-.349" fill="#f9a749"/>
   <path d="m55.454 536.5c0.496-2.601 0.06-5.129-1.006-7.18l-0.749-0.063c-1.445 4.712-2.238 9.628-3.751 14.184 2.792-1.203 5.303-3.862 5.506-6.941" fill="#fcd09b"/>
   <path d="m93.36065,539.28474c.492-.448.61-.859.421-1.469-.9-.994-2.907-1.648-4.852-2.183-1.203-.255-2.777-.183-3.098.297-.439.568.726,1.284 1.872,1.744 .673.198 1.86.522 2.547.36-.221-.509-2.41-.836-1.952-1.473 1.555-.003 2.522.75 3.08,1.356 .616.399.199.9-.149,1.158-1.549.295-4.186-.368-5.865-.892-3.819-1.959-6.267-4.564-11.702-5.666-1.891-.419-3.578-.583-5.15-.511-1.419.172-2.349.543-2.525,1.159l.306,1.172c-1.199.03-2.662-.272-3.495.079-.186.327.731.637 1.29.92 2.002.653 4.875,1.143 6.902,1.082 .394-.107.213-.429.361-.619-.838-.583-2.904-.708-3.064-1.421-.027-.546.863-.78 1.81-.893 6.239.852 10.577,3.23 14.551,5.61 1.646.628 3.498.858 5.204.954 1.546.032 2.59-.425 3.508-.764" fill="#fcd09b"/>
   <path d="m67.32765,535.49674c-.056-.442-1.368-.647-2.013-.62 .502.163 1.348.39 2.013.62" fill="#fff"/>
  </g>
 </g>
</svg>
