<?xml version="1.0" encoding="UTF-8"?>
<svg version="1.1" viewBox="0 0 900.92 600.82" xmlns="http://www.w3.org/2000/svg">
 <g transform="matrix(.61291 0 0 .61291 -7.4987 236.73)">
  <path d="m8 277.68c7.4007 5.3052 16.425-0.16339 24.103 1.5832 6.9728 1.5833 12.826 9.5284 19.848 11.039 20.207 4.3357 40.297-1.0966 59.991-9.4231 33.063-13.984 71.26-51.887 96.25-94.684 11.775-20.168 33.569-33.93 49.355-39.41 13.483-19.725 30.365-30.295 46.02-42.387 34.716-26.824 70.625-51.273 106.96-70.813 32.398-17.423 62.763-24.376 96.181-24.133 17.095 0.12709 33.903-10.81 52.358-9.3105 20.504 1.6667 45.394 0.83155 64.527 14.391 14.188 10.058 29.573 12.539 44.158 19.957 11.224 5.7083 26.305 10.984 35.661 20.985 12.174 13.018 26.772 15.284 38.996 28.12 23.706 24.878-7.8108 20.709-8.4439 26.918 5.3317 15.611 18.685 12.953 24.937 26.817 11.806 26.178-19.328 8.6096-17.849 7.8834-6.4511 1.1221-3.1279 14.449-1.219 19.71 5.1714 14.278 19.514 5.022 26.744 1.4452 18.088-8.9474 32.619 9.8116 50.574 12.357 7.6332 1.0821 15.675 0.35225 23.187 3.6167 14.354 6.2421 1.5259 19.841 8.4713 33.839 6.9415 5.1708 17.869 6.7177 22.573 19.057 4.3802 11.489 8.8894 8.8529 14.631 20.063 7.5804 14.815 7.0041 39.816-6.1288 40.83-15.218 1.1765-1.7584-16.631-11.22-24.75-7.848-1.5868-18.181 0.30139-20.934 16.882-5.2301 31.486 24.416 16.104 28.018 44.631 5.5446 43.854-28.976-7.4041-29.774 22.078 12.975 8.1776 8.8248 32.271-2.4636 37.994-5.998 3.0394-11.988-0.76983-15.97-9.6118-5.3708 7.9016-12.881 10.6-19.537 10.77-7.4612 0.18152-10.865 0.83877-11.988-11.624-0.76391-8.4608-15.276-3.4097-19.408-6.6016-15.378-11.852 10.093-19.064 9.8135-27.238-6.6544-1.4235-29.03-0.40311-18.431-23.654-7.2308 1.4125-13.95 9.4848-21.268 3.1519 1.0765 15.966-6.8731 22.372-13.877 24.946-13.314 4.8913-9.9756-21.018-19.644-15.85-9.0164 4.815-18.422 12.706-27.327 0.95141-15.776-20.807 9.2117-11.758 6.9631-25.814-6.0154 0.90414-11.83-0.37039-16.665-7.484-6.4452-9.4811 2.2331-14.623-0.34778-17.753-10.56 1.8628-19.992 11.671-30.437 14.365-13.301 3.4278-17.402-4.027-29.794 10.469-8.8503 10.356-14.749 22.746-13.598 43.186 1.4243 25.201-11.875 36.236-10.861 61.099 2.9579 72.788 54.526 157.16 88.941 176.84h-534.54c4.8608-3.4387 0.25593-16.217 5.6716-18.915-1.9146-3.6204-4.2786-4.6807-7.092-3.1628 8.7976-7.277 18.234 28.494 18.433-3.1519 6.7071-4.7206 11.435-1.5614 14.182 9.463 12.322-19.812-33.139-16.115-36.152-15.505-9.0164 1.841-19.287 0.41755-27.657-6.5762-0.70529-23.824 21.68-26.49 18.437-9.4629 17.355-11.442-21.968-36.225-18.437-12.611-2.1159-46.476-39.318-8.7331-49.622-6.3147-10.214 2.3821-18.724-2.6327-28.358-7.8907 1.5298-25.978-11.046-9.7209-11.343-14.187 2.3406-7.5783 11.064-0.8461 12.762-9.463-2.8466-7.2261-11.416-12.59-15.6-6.3147 0.06838 0.50109 18.17-14.06 15.6 14.205 12.82 11.613 5.1754-23.686 5.6716-26.817 14.96-8.2574 17.494 3.1301 19.848 22.074 10.181 3.4714 6.4238-14.986 8.5065-25.23 12.908-2.0626 7.5589 9.6844 13.809-11.456 3.6124-12.208 23.23-0.54108 17.386 14.612 13.789-13.047-12.435-19.322-11.343-33.12 1.5864 1.8374 2.5301 4.4701 2.8348 7.8906 5.3414-0.0653 0.47279-11.159 7.09-9.4629-8.2212 20.858 25.033 31.08 17.013 52.046 7.0685-1.2673 6.2714-13.229 2.8368-20.506 3.4249-6.7831 18.877-8.6351 21.268 1.5832 1.5141 5.9008-5.3239 2.4765-4.2532 7.8834 5.912 13.218 7.4866-12.539 11.343-14.198-1.772-4.1214-4.1341-5.6937-7.09-4.7314 2.9931-2.3422 5.8279-1.812 8.5065 1.5832-1.7681 5.3052-2.7137 11.101-2.8348 17.346 5.9706-0.11264 9.5107-8.3846 13.637 2.687 4.5209 12.121 5.064 24.024-5.1265 24.119 0.78735 18.262 13.766-4.9494 15.596-6.2965-6.2616-15.222-7.8109-37.384 4.2513-39.435 0.21687 4.0052-0.25398 7.6836-1.4164 11.046 7.6722 4.165 9.5087-18.973 19.578-15.473 11.199 3.889 3.9094 14.463 8.7761 20.204 6.3261-0.78077 8.3326-11.823 4.1204-19.387-6.4551-11.594-17.304-13.693-25.748-14.819-12.312-1.6522-13.106 3.0321-16.654-19.431-2.1882-2.6653-16.946-6.1476-12.762-15.763 6.5234-2.767 10.318 2.2368 15.596 7.8906 5.5016-8.0359-6.037-10.734-1.4204-18.926-8.399 4.8949-17.154-2.4002-25.519 1.576 9.2704-4.8586 28.7-17.132 26.94-31.544 3.2041 2.1642 6.5117 3.2136 9.9248 3.1482-1.774 1.7067-3.6632 2.2369-5.6697 1.5905-2.5164 14.772 8.7683 13.268 12.758 12.615-7.4515 3.7728 6.1991 15.32 12.762 9.463 4.9624 21.047-5.9432 9.9096-11.343 14.187 10.296 26.181 27.782-22.797 39.701-3.152 1.5141 9.3359-6.8751 5.4759-8.5064 4.7279 1.5747 9.8406 16.667 4.1505 15.593-4.7279 8.6628 18.026-1.4614 30.194-11.341 26.806 0.15241 9.5248 12.133 6.7577 14.88 6.8848 14.983 0.67179 6.7442 24.493-3.5382 19.932-2.1667 15.574 25.783-14.318 25.523-14.202-6.6035 20.673-27.606 53.876-41.118 39.428 1.5767 12.125 15.942 8.0577 19.85 4.7387-5.4176 14.921 9.8272 18.345-5.699 24.823-4.222 1.7612-14.88 3.8563-15.309 0.28327 1.8033 15.001 26.277 9.8624 32.352 9.59 8.8288 17.666-12.783 24.671-18.429 18.926-6.4824 9.6409 16.03 8.2901 14.756 8.7912 7.7152-2.9994 13.428-13.083 17.855-24.569-4.0247-2.3458-6.8595-7.0736-8.5064-14.187 3.63-3.6712 7.4124-4.1941 11.343-1.5796 1.7232 7.1354-3.9172 6.017-2.8348 12.618 9.8467 0.0509 14.196-23.643 1.4145-23.658 8.3404-6.6378 41.759-8.4389 28.36 20.495 6.2597 2.2622 19.303-20.97 9.9268-25.23 1.7212-2.3421 36.114-20.81 25.523-29.965 8.061-5.2072 5.6559 14.67 0 15.774 12.418 17.321 0.80099 8.7221 1.4145 23.657 7.4573 2.6 11.507-10.498 15.596-18.93-4.1849 15.687 2.1432 28.236-9.9229 34.696 8.6393 6.3655 14.544-14.982 21.719 2.6545 4.5346 11.144-4.0305 23.258-10.378 24.155 12.584 14.231 17.978-19.038 29.775-18.926 6.8419 0.069 11.187 6.8521 14.354 17.397 6.0604 20.175-1.9674 3.6748-3.0126 18.882 10.954 9.0817 12.693-18.991 7.1076-29.987-3.0908-4.7606-5.4587-10.542-7.1076-17.332-2.913 1.2347-5.8533 2.0299-8.8229 2.3821 2.4109 2.1932 10.8-12.72 10.243-18.145 7.387-0.55921 27.881 5.2689 19.848 28.378 8.6159-2.2876 9.3485-22.307 2.6708-28.923-18.756-18.57 8.4029-17.179 1.5844-2.6108 11.275 0.89328-0.68378-17.59 9.3466-21.163 4.4271-1.3872 8.8073-0.99131 13.141 1.191 8.358 4.5427 0.43375 16.29 5.8709 19.972 8.6921-8.9946 0.23056-21.384-4.5482-26.247-10.55-10.723-23.269 0.207-33.737 7.317 9.6552-2.4257 13.742-22.358 0-22.074 13.738-3.1519 7.9614-20.502-1.4203-25.244-10.822-1.1511-15.534 15.015-26.75 12.088-7.217-1.8774-26.877-7.4948-29.349-19.812-2.1139-10.516-0.32818-21.007-0.61535-31.704 2.6727 1.5542 11.904-6.8957 11.613-3.2499-0.72683 2.6544-1.7623 4.7932-3.1045 6.4092-0.17193 0.0508 11.535 2.1824 10.101-1.2819-2.2644-1.1438-2.7958-2.8178-1.5942-5.0329 6.0116-2.7016 1.7212 3.8092 5.6736 4.7424 0.84797 6.3474-5.9373 4.3356-7.09 7.8761 2.1628 8.9437 11.994 4.5063 11.343-4.7243 3.4034 9.5974 14.319 22.074-1.4165 22.074 7.1975 8.2683 10.97 2.3022 16.017-7.2952 7.0041-13.341 24.548-5.5558 15.174 5.7192 27.836-0.24328-6.6231-38.186 21.268-37.856-2.2018 6.8594-14.6 2.669-11.343 15.774 10.112-6.3038 18.508 2.0879 28.358 4.7315 1.7603 14.144-8.8132 23.436-8.5065 25.237 10.956 6.6379 23.697-27.107 32.609-9.4594-2.6219-2.796-5.4548-3.8563-8.5065-3.1664 1.8111 4.0016 4.1751 5.5739 7.092 4.7423 3.5382 14.173-2.3562 20.142-7.092 28.393 9.5497 5.4178 14.127-8.5479 22.688-11.043 14.612 2.8687 2.5164 21.268 1.4164 26.802 15.843 6.6161 9.9952-26.254 24.929-24.042 18.207 2.6908 7.1428 10.222 11.935 24.042 24.148 1.6486-5.1949-37.282-15.596-39.428-1.5571-7.2298 4.8354-4.7388 4.2552-11.039-2.3268-1.0276-11.201 5.2326-12.762 3.1628 2.0534-19.104 18.062 3.1302 19.85 9.4521 8.6999 2.6036 5.7537-14.95-1.4183-17.332 0.30865-7.4295 50.328-17.869 35.446 14.184 20.16-4.6879 1.6684-31.16-7.0862-36.265 9.1004 7.5457 21.241-29.522 29.775 3.1482 9.2313-15.346-25.193-23.712-30.622-19.078-8.8074 7.513-17.341-7.7382-27.512-4.5754-3.7492 3.7946-7.5296 7.4767-11.341 11.039-4.7143-1.7284-9.4384-3.3044-14.182-4.7388 8.5768-0.90777 8.991-19.786 0-20.502 8.4108-8.4608 26.26-14.982 32.613 3.1628 2.3738-27.303-33.233-15.622-39.7-12.615-0.85767-17.906 8.0356-6.4092 12.756-6.3111-2.1061-22.121-40.073 11.017-49.943 7.7345-3.5206-1.1729-13.701-4.4737-14.19-13.762-0.3067-5.8318 4.9995-8.8965 6.8946-10.033 11.281-6.7323 4.5463 2.3458 10.452 11.318 14.637-4.844 1.6763-27.416-7.09-26.806-2.7958-24.355 15.632-9.4957 21.27-6.3074-0.79126 2.4329-1.264 5.0619-1.4223 7.8906 16.497-6.4527-9.4189-22.216-15.137-21.813-3.4366 0.23965-30.83 13.239-27.397-3.4242h11.345c-4.9585-12.72-25.842-10.883-31.195 0-13.86 2.5455-27.813-5.1382-37.212-23.269-5.0269-9.6917-20.967-36.813-12.947-51.447 7.4065-13.523 32.793-9.4122 17.548 13.21 13.141 8.1412 18.849-19.322 8.5084-33.12 3.2119 1.8519 5.574 5.5304 7.0862 11.043 3.9055-5.4468 8.272-7.2443 13.098-5.3888 17.171 4.7606 6.3456 13.243 6.7559 27.467 8.3443 6.4563 13.733-8.1921 9.8389-20.404-6.8946-21.624 7.5726-12.902 12.846-17.448-2.9286-8.5406-11.072-3.958-14.936-2.2005-6.3906 2.9122-14.291-8.9655-21.926-11.987 5.8416-3.0248 38.711 7.1136 39.698 18.922 13.895-13.69-26.828-20.436-26.94-20.502 3.2959-1.3363 6.6035-1.3363 9.9268 0-0.93778-5.1164-1.4106-10.371-1.4164-15.77 5.318 1.4234 0.9925 5.8172 1.4164 11.046 7.301-2.8977 40.883 26.254 36.867 45.732 14.59 2.4148-5.5154-34.504-7.09-39.424 12.785-12.59 18.369 4.136 24.107 14.191 12.945-20.317-33.387-28.233-35.45-33.117 29.568 16.108-5.025-3.3916 14.379-10.836 6.7442-2.5891 40.053-5.8499 30.994 23.454 17.949 0.0218-0.66034-24.736-1.4203-33.124 1.8345 6.7977 11.107 21.918 13.871 18.577 8.6198-10.411 20.342 19.972 10.236 31.897 8.9734 3.2608 14.981-15.636 17.908-22.423-2.0553 1.507-2.8212 4.2449-2.3112 8.2284 5.105-2.4511 32.174 5.9552 21.27 25.233 5.7361 4.1796 7.9653-6.1186 8.5065-14.198-5.5329-14.692-15.425-20.56-21.268-34.693 1.1195-4.1541 3.0107-5.7301 5.6697-4.7315 1.0882-13.141-14.328-5.7736-12.287-9.1725 2.3972-4.0052 9.9151-1.8229 12.287 1.2854 1.096-15.077-16.782-12.891-21.268-15.77 4.4662-0.96227 29.523 2.7743 21.268 20.502 11.845 0.47569 4.4955-24.602-2.8348-26.809 11.185-4.1614 10.239 15.146 9.9268 23.658 4.1732 2.324 8.4244 3.9072 12.76 4.7351 0.94561 5.2544 1.8912 10.512 2.8368 15.767 8.9011-4.0379 4.052-17.455 1.4145-26.809 8.7272-9.7571 24.398-6.1295 22.688 12.622 5.91 2.0299 3.3467-7.168 8.5065-6.3111-3.46 7.1644 6.8614 8.9546 5.6716 17.35-2.4108 0.68993-4.7729 1.7394-7.0919 3.1519 3.3779 4.4664 33.51-30.03 31.199 4.7315-7.6508-21.264-23.29-5.5485-18.486-0.73349 11.619 11.649-11.9 13.13-14.125 13.352-4.0832 3.9726 14.207 10.334 18.404 7.3242 5.572-3.9944 11.287-2.9013 15.614 5.3053 6.1171 11.609-0.76782 9.7317-4.2454 17.332 8.6393 8.5697 10.671-10.919 17.019-15.774-1.2933 24.453-23.224 27.093-32.615 26.817 5.7205 19.794 52.612-18.93 36.865 15.767 2.5281 7.2189 9.1103-2.0371 12.762 1.5832 8.9129 15.277-2.6825 13.89-5.6697 22.078 10.693 6.6924 17.912-18.014 28.356 0-3.968 0.0835-7.7523-1.4961-11.343-4.7315 11.718 20.484-24.263 25.829-24.105 28.385 7.049 7.0846 32.473-5.0365 28.36 15.77-2.8427-0.87149-5.6755-0.87149-8.5065 0-2.3719 19.231 27.993-3.6639 18.433-18.922 0.10547-0.3377 19.123 8.3119 23.091 9.7971 21.27 7.9705-1.0687 17.132-3.2412 23.32 4.8315 9.1725 15.46 1.9609 18.433-7.887-3.2393 7.8435 14.496 40.223-7.09 36.272 7.1232 8.7876 15.751-0.66446 22.702-4.7278 13.236-7.7309 12.978 3.3879 12.746 18.93 20.635-1.2056-0.33209-28.247 3.9719-39.61 9.5966-25.339 34.606 11.631 22.968 15.945 7.8168 10.698 13.358-22.437 13.789-21.315 0.44928 3.2172 0.10931 6.1186-1.0277 8.7041 7.934 1.2092 18.926 21.653 5.6716 28.389 7.4026 8.2792 14.27-12.092 22.686-9.463-1.8013 2.2223-9.8448 0.25782-9.9249 6.3111 4.4662 8.1376 8.6667-4.7896 9.9092 11.46 1.2504 16.293-6.6329 22.659-14.168 21.657 0.92804 6.2747 43.417-6.2675 24.105 20.502 3.5811 0.35584 20.114-11.478 11.345-17.35 1.057 0.78073 30.722 4.1723 21.27 14.187 15.796-19.351-35.208-36.512-19.244-45.143 7.895-4.2667 20.778 9.5429 22.04 1.7357 2.8368-17.542 24.162-13.791 22.724 3.9908 11.726-15.821-31.082-34.072-38.283-29.969 7.7386-2.3422 12.349-10.963 11.544-25.705-1.3773-25.106-8.5397-6.2058-14.461-19.816-1.606-3.6966 16.82 2.5854 15.141 5.7446-1.7211 1.0494-2.487 3.2645-2.2955 6.6561 2.7176-0.34137 17.603-14.728 8.5045-20.502 10.165 10.037 34.409-16.827 36.866 17.346 14.424-29.279-37.961-20.734-35.446-39.421 5.3376-1.329 10.538-0.276 15.593 3.1555 2.4733-25.364-44.213-7.0773-49.622-7.887-1.1566-6.4418-20.006-23.578-4.3314-23.737 6.8614-0.069 14.584 19.187 15.673-4.6516-1.8444-1.6849-3.7317-1.6849-5.6737 0 4.2572-7.2189 24.564-7.4948 25.195-3.7511-2.5594-15.258-20.887-17.386-28.462-17.884-12.281-0.80977-25.396-5.0292-37.845-13.065-19.606 14.34-39.979 1.8556-58.135 1.5832 9.3152-8.9982 18.822-61.244 32.608-25.233-2.0749-29.692-40.374-24.732-51.045-25.233-2.6883-8.813 5.9804-6.3365 5.5153-5.81-2.0923 0.25783-2.9872 2.1933-2.6805 5.81 3.6848 1.0385 6.842-0.70446 9.4794-5.2254 4.562-9.5901 5.738 0.16704 13.211-1.0821 1.4673-5.6611-5.3707-10.52-4.8139-16.707 1.309-14.503 15.755-0.64999 18.992 2.5092 5.3356-16.62-35.718-28.828-39.701-28.385-11.179-14.351-23.601-25.658-36.613-32.972-9.2156-5.1818-18.783-8.2974-28.421-8.6677-13.735-0.53016-10.966-14.568-23.577-15.15-16.022-0.73351-31.545-7.1717-47.497-10.171-20.655-3.8782-35.688 7.8289-55.308 11.758-37.865 7.5784-71.24 6.3074-108.18 29.507-33.078 20.778-66.741 40.085-98.926 65.366-14.479 11.373-27.61 25.854-41.393 39.653-15.526 15.538-33.399 21.123-47.84 40.528-58.299 78.326-131.98 156.96-205.59 162.42 0-24.133 35.847-13.704 48.208-23.668-9.456 0.40667-18.908 1.1947-28.366 1.5759-17.29 0.70083-19.842 5.7701-19.842-26.795 18.351 9.8588 40.204 3.4315 58.832 0.12707 14.856-2.6362 42.812 1.3545 54.598-19.057-13.987 7.5384-113.43 26.199-113.43-9.4666" fill="#007cc2" fill-rule="evenodd"/>
 </g>
 <g transform="matrix(.50128 .16907 -.16907 .50128 395.45 -81.725)" fill="#231f20">
  <path d="m-46.074 317c15.767-15.35 16.02-40.585 0.67035-56.352s-40.583-16.191-56.35-0.84089c-15.853 15.434-16.106 40.67-0.75673 56.436 15.35 15.767 40.583 16.191 56.436 0.7567"/>
  <g transform="matrix(.6798 -.66181 .66181 .6798 -571.07 452.55)">
   <path d="m194.73 528.92c147.23 61.956 259.07 98.049 416.6 147.68 3.177 0.50793 6.164-1.7161 6.672-5.0841 0.508-3.1769-1.716-6.2909-4.956-6.9259-248.08-78.096-442.9-164.58-487.32-184.66-4.575-1.906-9.913 0.25397-11.692 4.702-1.843 4.575 0.12699 9.532 4.639 11.311 10.993 4.956 21.923 9.786 32.471 14.361l-34.949 26.688c-4.004 5.846-2.288 13.281 3.558 17.284 4.385 2.923 10.549 2.606 14.806-0.12708l60.176-25.227z"/>
   <path d="m388.53 384.34 89.343-43.909 82.925 76.316c3.6856 3.622 8.7691 5.8461 14.234 5.8461 11.184-0.12708 20.143-9.2139 20.016-20.207 0-5.9732-2.7324-11.311-6.8627-15.06l-118.51-108.85c-3.9397-3.8127-8.5785-6.9263-13.662-9.1504l-92.202-32.916-41.939-60.685c-3.2408-4.4481-8.1972-7.4347-14.043-8.1972-10.93-1.2073-20.97 6.7357-22.177 17.792-0.50836 4.5751 0.57187 9.0233 2.8595 12.772l42.765 62.019c2.0334 2.4782 4.5116 4.6387 7.4982 5.9732l49.628 19.508-81.527 41.685c-11.438 6.4179-19.508 17.856-21.732 31.136l0.3813 74.601-75.427 33.996c-8.4514 4.1304-14.488 12.518-14.869 22.622-0.63545 14.361 10.548 26.434 24.909 27.006 4.5116 0.25421 8.8326-0.69898 12.582-2.6054l92.266-41.685c6.545-3.4949 11.502-9.7858 13.154-17.475l-0.1271-46.451 64.052 57.38-11.819 97.667c0 0.57196-0.12708 1.2073-0.12708 1.8428-0.63543 14.424 10.548 26.561 24.973 27.197 13.535 0.50842 25.036-9.3409 26.943-22.622l13.726-111.46c0-0.44477 0.12708-0.95313 0.12708-1.4615 0.25418-7.8159-2.8595-14.869-8.0701-19.889l-59.287-52.742z"/>
  </g>
 </g>
</svg>
