<?xml version="1.0" encoding="UTF-8" standalone="no"?>
<svg
   xmlns:dc="http://purl.org/dc/elements/1.1/"
   xmlns:cc="http://creativecommons.org/ns#"
   xmlns:rdf="http://www.w3.org/1999/02/22-rdf-syntax-ns#"
   xmlns:svg="http://www.w3.org/2000/svg"
   xmlns="http://www.w3.org/2000/svg"
   xmlns:sodipodi="http://sodipodi.sourceforge.net/DTD/sodipodi-0.dtd"
   xmlns:inkscape="http://www.inkscape.org/namespaces/inkscape"
   width="210mm"
   height="297mm"
   viewBox="0 0 210 297"
   version="1.1"
   id="svg1675"
   inkscape:version="1.0.1 (3bc2e813f5, 2020-09-07)"
   sodipodi:docname="Login.svg">
  <defs
     id="defs1669" />
  <sodipodi:namedview
     id="base"
     pagecolor="#ffffff"
     bordercolor="#666666"
     borderopacity="1.0"
     inkscape:pageopacity="0.0"
     inkscape:pageshadow="2"
     inkscape:zoom="0.7"
     inkscape:cx="594.68931"
     inkscape:cy="394.88242"
     inkscape:document-units="mm"
     inkscape:current-layer="layer1"
     inkscape:document-rotation="0"
     showgrid="false"
     showborder="false"
     inkscape:snap-global="true"
     showguides="true"
     inkscape:guide-bbox="true"
     inkscape:window-width="1920"
     inkscape:window-height="1017"
     inkscape:window-x="1912"
     inkscape:window-y="-8"
     inkscape:window-maximized="1" />
  <metadata
     id="metadata1672">
    <rdf:RDF>
      <cc:Work
         rdf:about="">
        <dc:format>image/svg+xml</dc:format>
        <dc:type
           rdf:resource="http://purl.org/dc/dcmitype/StillImage" />
        <dc:title />
      </cc:Work>
    </rdf:RDF>
  </metadata>
  <g
     inkscape:label="Layer 1"
     inkscape:groupmode="layer"
     id="layer1">
    <rect
       style="fill:#006680;stroke-width:1;stop-color:#000000"
       id="rect2238"
       width="276.43341"
       height="170.84525"
       x="-41.454796"
       y="51.404762"
       ry="20.312485" />
    <path
       id="path2240"
       style="fill:#80e5ff;stroke-width:1;stop-color:#000000;stroke:#004c80;stroke-opacity:1"
       d="m 29.303905,87.690631 a 49.136903,49.136903 0 0 0 -48.96496,49.136529 49.136903,49.136903 0 0 0 49.13652,49.13705 49.136903,49.136903 0 0 0 49.13706,-49.13705 49.136903,49.136903 0 0 0 -49.13706,-49.136529 49.136903,49.136903 0 0 0 -0.17156,0 z m 0.17156,6.8032 a 42.33333,42.33333 0 0 1 42.33334,42.333329 42.33333,42.33333 0 0 1 -42.33334,42.33333 42.33333,42.33333 0 0 1 -42.333329,-42.33333 42.33333,42.33333 0 0 1 42.333329,-42.333329 z" />
    <path
       id="rect2247"
       style="fill:#aaeeff;stroke-width:0.569107;stop-color:#000000;stroke:#004c80;stroke-opacity:1"
       d="m 29.475816,105.16338 c -7.269388,0 -13.121594,5.85221 -13.121594,13.1216 v 3.84881 h 4.302301 v -0.80288 c 0,-5.87832 3.933313,-10.61062 8.819293,-10.61062 4.885982,0 8.819589,4.7323 8.819589,10.61062 v 0.80288 h 4.302007 v -3.84881 c 0,-7.26939 -5.852206,-13.1216 -13.121596,-13.1216 z" />
    <path
       id="rect2254"
       style="fill:#aaeeff;stroke:#004c80;stroke-width:2.59216;stroke-opacity:1;stop-color:#000000"
       d="M 34.429688 469.33789 C 19.421657 469.33789 7.3398438 481.41968 7.3398438 496.42773 L 7.3398438 609.72656 C 7.3398437 624.73458 19.421657 636.81836 34.429688 636.81836 L 188.37891 636.81836 C 203.38693 636.81836 215.46875 624.73458 215.46875 609.72656 L 215.46875 496.42773 C 215.46875 481.41968 203.38693 469.33789 188.37891 469.33789 L 34.429688 469.33789 z M 111.4043 495.87695 A 25.294925 25.294925 0 0 1 136.69922 521.17188 A 25.294925 25.294925 0 0 1 125.77734 541.98633 L 125.77734 595.90625 C 125.77734 603.86843 119.36644 610.2793 111.4043 610.2793 C 103.44213 610.2793 97.03125 603.86843 97.03125 595.90625 L 97.03125 541.98633 A 25.294925 25.294925 0 0 1 86.109375 521.17188 A 25.294925 25.294925 0 0 1 111.4043 495.87695 z "
       transform="scale(0.26458333)" />
    <rect
       style="fill:#aaeeff;stroke-width:1.00366;stop-color:#000000;stroke:#004c80;stroke-opacity:1"
       id="rect2293"
       width="112"
       height="24.588797"
       x="101.18488"
       y="87.690559"
       ry="12.294398" />
    <rect
       style="fill:#aaeeff;stroke-width:1.00366;stop-color:#000000;stroke:#004c80;stroke-opacity:1"
       id="rect2295"
       width="112"
       height="24.588797"
       x="101.18488"
       y="124.53298"
       ry="12.294398" />
    <rect
       style="fill:#aaeeff;stroke-width:0.6706;stop-color:#000000;stroke:#004c80;stroke-opacity:1"
       id="rect2297"
       width="50"
       height="24.588797"
       x="101.18488"
       y="161.37541"
       ry="12.294398" />
    <rect
       style="fill:#aaeeff;stroke-width:0.6706;stop-color:#000000;stroke:#004c80;stroke-opacity:1"
       id="rect2299"
       width="50"
       height="24.588797"
       x="163.18488"
       y="161.37541"
       ry="12.294398" />
    <text
       xml:space="preserve"
       style="font-style:normal;font-weight:normal;font-size:10.5833px;line-height:1.25;font-family:sans-serif;fill:#000000;fill-opacity:1;stroke:none;stroke-width:0.264583"
       x="112.99812"
       y="175.93463"
       id="text2307"><tspan
         sodipodi:role="line"
         id="tspan2305"
         x="112.99812"
         y="175.93463"
         style="font-style:normal;font-variant:normal;font-weight:normal;font-stretch:normal;font-family:'Zilla Slab';-inkscape-font-specification:'Zilla Slab';fill:#006680;fill-opacity:1;stroke-width:0.264583">Login</tspan></text>
    <text
       xml:space="preserve"
       style="font-style:normal;font-weight:normal;font-size:10.5833px;line-height:1.25;font-family:sans-serif;fill:#006680;fill-opacity:1;stroke:none;stroke-width:0.264583"
       x="172.73326"
       y="177.25755"
       id="text2313"><tspan
         sodipodi:role="line"
         id="tspan2311"
         x="172.73326"
         y="177.25755"
         style="font-style:normal;font-variant:normal;font-weight:normal;font-stretch:normal;font-family:'Zilla Slab';-inkscape-font-specification:'Zilla Slab';fill:#006680;fill-opacity:1;stroke-width:0.264583">Cancel</tspan></text>
    <text
       xml:space="preserve"
       style="font-style:normal;font-variant:normal;font-weight:normal;font-stretch:normal;font-size:16.8395px;line-height:1.25;font-family:Verdana;-inkscape-font-specification:Verdana;fill:#006680;fill-opacity:1;stroke:none;stroke-width:0.420987"
       x="111.26943"
       y="105.3736"
       id="text2319"><tspan
         sodipodi:role="line"
         id="tspan2317"
         x="111.26943"
         y="105.3736"
         style="font-style:normal;font-variant:normal;font-weight:normal;font-stretch:normal;font-family:'Zilla Slab';-inkscape-font-specification:'Zilla Slab';fill:#006680;fill-opacity:1;stroke-width:0.420987">UserName</tspan></text>
    <text
       xml:space="preserve"
       style="font-style:normal;font-variant:normal;font-weight:normal;font-stretch:normal;font-size:16.8395px;line-height:1.25;font-family:Verdana;-inkscape-font-specification:Verdana;fill:#006680;fill-opacity:1;stroke:none;stroke-width:0.420987"
       x="111.16839"
       y="142.53596"
       id="text2325"><tspan
         sodipodi:role="line"
         id="tspan2323"
         x="111.16839"
         y="142.53596"
         style="font-style:normal;font-variant:normal;font-weight:normal;font-stretch:normal;font-family:'Zilla Slab';-inkscape-font-specification:'Zilla Slab';fill:#006680;fill-opacity:1;stroke-width:0.420987">Password</tspan></text>
  </g>
</svg>
