<?xml version="1.0" encoding="UTF-8"?>
<svg viewBox="0 0 1680 1050" xmlns="http://www.w3.org/2000/svg" xmlns:xlink="http://www.w3.org/1999/xlink">
 <defs>
  <linearGradient id="a">
   <stop offset="0"/>
   <stop offset=".04684"/>
   <stop stop-color="#fff" offset=".11671"/>
   <stop offset=".192"/>
   <stop offset=".23979"/>
   <stop stop-color="#fff" offset=".31315"/>
   <stop stop-color="#010101" offset=".39347"/>
   <stop offset=".44833"/>
   <stop stop-color="#fff" offset=".52621"/>
   <stop offset=".60357"/>
   <stop offset=".65357"/>
   <stop stop-color="#fff" offset=".7317"/>
   <stop offset=".80949"/>
   <stop offset=".85804"/>
   <stop stop-color="#fff" offset=".92704"/>
   <stop offset="1"/>
  </linearGradient>
  <linearGradient id="r" x1="460.03" x2="613.61" gradientUnits="userSpaceOnUse" xlink:href="#a"/>
  <linearGradient id="q" x1="613.23" x2="666.14" gradientUnits="userSpaceOnUse" xlink:href="#a"/>
  <linearGradient id="p" x1="665.84" x2="718.75" gradientUnits="userSpaceOnUse" xlink:href="#a"/>
  <linearGradient id="o" x1="717.32" x2="770.22" gradientUnits="userSpaceOnUse" xlink:href="#a"/>
  <linearGradient id="n" x1="769.36" x2="801.26" gradientUnits="userSpaceOnUse" xlink:href="#a"/>
  <linearGradient id="m" x1="800.73" x2="832.47" gradientUnits="userSpaceOnUse" xlink:href="#a"/>
  <linearGradient id="l" x1="832.37" x2="864.12" gradientUnits="userSpaceOnUse" xlink:href="#a"/>
  <linearGradient id="k" x1="863.74" x2="895.49" gradientUnits="userSpaceOnUse" xlink:href="#a"/>
  <linearGradient id="j" x1="895.42" x2="927.17" gradientUnits="userSpaceOnUse" xlink:href="#a"/>
  <linearGradient id="h" x1="1008.7" x2="1029.3" gradientUnits="userSpaceOnUse" xlink:href="#a"/>
  <linearGradient id="g" x1="988.24" x2="1008.8" gradientUnits="userSpaceOnUse" xlink:href="#a"/>
  <linearGradient id="f" x1="967.94" x2="988.48" gradientUnits="userSpaceOnUse" xlink:href="#a"/>
  <linearGradient id="e" x1="947.47" x2="968.01" gradientUnits="userSpaceOnUse" xlink:href="#a"/>
  <linearGradient id="i" x1="927.18" x2="947.72" gradientUnits="userSpaceOnUse" xlink:href="#a"/>
  <linearGradient id="d" x1="1029.2" x2="1049.8" gradientUnits="userSpaceOnUse" xlink:href="#a"/>
  <linearGradient id="c" x1="1049.5" x2="1070.1" gradientUnits="userSpaceOnUse" xlink:href="#a"/>
  <linearGradient id="b" x1="1070" x2="1090.6" gradientUnits="userSpaceOnUse" xlink:href="#a"/>
 </defs>
 <g transform="translate(0 -2.3622)">
  <path d="m1560.5 947.17h75.847v76.329h-75.847z" fill="#808080" fill-rule="evenodd" stroke="#fff" stroke-linecap="square" stroke-width="1.541"/>
  <path d="m1560.5 870.84h75.847v76.329h-75.847z" fill="#808080" fill-rule="evenodd" stroke="#fff" stroke-linecap="square" stroke-width="1.541"/>
  <path d="m1560.5 794.51h75.847v76.329h-75.847z" fill="#808080" fill-rule="evenodd" stroke="#fff" stroke-linecap="square" stroke-width="1.541"/>
  <path d="m1560.5 718.18h75.847v76.329h-75.847z" fill="#808080" fill-rule="evenodd" stroke="#fff" stroke-linecap="square" stroke-width="1.541"/>
  <path d="m1560.5 641.86h75.847v76.329h-75.847z" fill="#808080" fill-rule="evenodd" stroke="#fff" stroke-linecap="square" stroke-width="1.541"/>
  <path d="m1560.5 565.53h75.847v76.329h-75.847z" fill="#808080" fill-rule="evenodd" stroke="#fff" stroke-linecap="square" stroke-width="1.541"/>
  <path d="m1560.5 489.2h75.847v76.329h-75.847z" fill="#808080" fill-rule="evenodd" stroke="#fff" stroke-linecap="square" stroke-width="1.541"/>
  <path d="m1560.5 412.87h75.847v76.329h-75.847z" fill="#808080" fill-rule="evenodd" stroke="#fff" stroke-linecap="square" stroke-width="1.541"/>
  <path d="m1560.5 336.54h75.847v76.329h-75.847z" fill="#808080" fill-rule="evenodd" stroke="#fff" stroke-linecap="square" stroke-width="1.541"/>
  <path d="m1560.5 260.21h75.847v76.329h-75.847z" fill="#808080" fill-rule="evenodd" stroke="#fff" stroke-linecap="square" stroke-width="1.541"/>
  <path d="m1560.5 183.88h75.847v76.329h-75.847z" fill="#808080" fill-rule="evenodd" stroke="#fff" stroke-linecap="square" stroke-width="1.541"/>
  <path d="m1560.5 107.55h75.847v76.329h-75.847z" fill="#808080" fill-rule="evenodd" stroke="#fff" stroke-linecap="square" stroke-width="1.541"/>
  <path d="m1560.5 31.225h75.847v76.329h-75.847z" fill="#808080" fill-rule="evenodd" stroke="#fff" stroke-linecap="square" stroke-width="1.541"/>
  <path d="m1484.7 947.17h75.847v76.329h-75.847z" fill="#808080" fill-rule="evenodd" stroke="#fff" stroke-linecap="square" stroke-width="1.541"/>
  <path d="m1484.7 870.84h75.847v76.329h-75.847z" fill="#808080" fill-rule="evenodd" stroke="#fff" stroke-linecap="square" stroke-width="1.541"/>
  <path d="m1484.7 794.51h75.847v76.329h-75.847z" fill="#808080" fill-rule="evenodd" stroke="#fff" stroke-linecap="square" stroke-width="1.541"/>
  <path d="m1484.7 718.18h75.847v76.329h-75.847z" fill="#808080" fill-rule="evenodd" stroke="#fff" stroke-linecap="square" stroke-width="1.541"/>
  <path d="m1484.7 641.86h75.847v76.329h-75.847z" fill="#808080" fill-rule="evenodd" stroke="#fff" stroke-linecap="square" stroke-width="1.541"/>
  <path d="m1484.7 565.53h75.847v76.329h-75.847z" fill="#808080" fill-rule="evenodd" stroke="#fff" stroke-linecap="square" stroke-width="1.541"/>
  <path d="m1484.7 489.2h75.847v76.329h-75.847z" fill="#808080" fill-rule="evenodd" stroke="#fff" stroke-linecap="square" stroke-width="1.541"/>
  <path d="m1484.7 412.87h75.847v76.329h-75.847z" fill="#808080" fill-rule="evenodd" stroke="#fff" stroke-linecap="square" stroke-width="1.541"/>
  <path d="m1484.7 336.54h75.847v76.329h-75.847z" fill="#808080" fill-rule="evenodd" stroke="#fff" stroke-linecap="square" stroke-width="1.541"/>
  <path d="m1484.7 260.21h75.847v76.329h-75.847z" fill="#808080" fill-rule="evenodd" stroke="#fff" stroke-linecap="square" stroke-width="1.541"/>
  <path d="m1484.7 183.88h75.847v76.329h-75.847z" fill="#808080" fill-rule="evenodd" stroke="#fff" stroke-linecap="square" stroke-width="1.541"/>
  <path d="m1484.7 107.55h75.847v76.329h-75.847z" fill="#808080" fill-rule="evenodd" stroke="#fff" stroke-linecap="square" stroke-width="1.541"/>
  <path d="m1484.7 31.225h75.847v76.329h-75.847z" fill="#808080" fill-rule="evenodd" stroke="#fff" stroke-linecap="square" stroke-width="1.541"/>
  <path d="m1408.9 947.17h75.847v76.329h-75.847z" fill="#808080" fill-rule="evenodd" stroke="#fff" stroke-linecap="square" stroke-width="1.541"/>
  <path d="m1408.9 870.84h75.847v76.329h-75.847z" fill="#808080" fill-rule="evenodd" stroke="#fff" stroke-linecap="square" stroke-width="1.541"/>
  <path d="m1408.9 794.51h75.847v76.329h-75.847z" fill="#808080" fill-rule="evenodd" stroke="#fff" stroke-linecap="square" stroke-width="1.541"/>
  <path d="m1408.9 718.18h75.847v76.329h-75.847z" fill="#808080" fill-rule="evenodd" stroke="#fff" stroke-linecap="square" stroke-width="1.541"/>
  <path d="m1408.9 641.86h75.847v76.329h-75.847z" fill="#808080" fill-rule="evenodd" stroke="#fff" stroke-linecap="square" stroke-width="1.541"/>
  <path d="m1408.9 565.53h75.847v76.329h-75.847z" fill="#808080" fill-rule="evenodd" stroke="#fff" stroke-linecap="square" stroke-width="1.541"/>
  <path d="m1408.9 489.2h75.847v76.329h-75.847z" fill="#808080" fill-rule="evenodd" stroke="#fff" stroke-linecap="square" stroke-width="1.541"/>
  <path d="m1408.9 412.87h75.847v76.329h-75.847z" fill="#808080" fill-rule="evenodd" stroke="#fff" stroke-linecap="square" stroke-width="1.541"/>
  <path d="m1408.9 336.54h75.847v76.329h-75.847z" fill="#808080" fill-rule="evenodd" stroke="#fff" stroke-linecap="square" stroke-width="1.541"/>
  <path d="m1408.9 260.21h75.847v76.329h-75.847z" fill="#808080" fill-rule="evenodd" stroke="#fff" stroke-linecap="square" stroke-width="1.541"/>
  <path d="m1408.9 183.88h75.847v76.329h-75.847z" fill="#808080" fill-rule="evenodd" stroke="#fff" stroke-linecap="square" stroke-width="1.541"/>
  <path d="m1408.9 107.55h75.847v76.329h-75.847z" fill="#808080" fill-rule="evenodd" stroke="#fff" stroke-linecap="square" stroke-width="1.541"/>
  <path d="m1408.9 31.225h75.847v76.329h-75.847z" fill="#808080" fill-rule="evenodd" stroke="#fff" stroke-linecap="square" stroke-width="1.541"/>
  <path d="m1333 947.17h75.847v76.329h-75.847z" fill="#808080" fill-rule="evenodd" stroke="#fff" stroke-linecap="square" stroke-width="1.541"/>
  <path d="m1333 527.11v420.07h75.844v-420.07h-75.844z" fill="#6759a8" fill-rule="evenodd"/>
  <path d="m1333 107.55v419.56h75.844v-419.56h-75.844z" fill="#9ea659" fill-rule="evenodd"/>
  <path d="m1333 31.225h75.847v76.329h-75.847z" fill="#808080" fill-rule="evenodd" stroke="#fff" stroke-linecap="square" stroke-width="1.541"/>
  <path d="m1257.2 947.17h75.847v76.329h-75.847z" fill="#808080" fill-rule="evenodd" stroke="#fff" stroke-linecap="square" stroke-width="1.541"/>
  <path transform="translate(0 2.3622)" d="m1257.2 792.16v152.66h75.844v-152.66h-75.844z" fill="#a57159" fill-rule="evenodd"/>
  <path d="m1257.2 718.18h75.847v76.329h-75.847z" fill="#808080" fill-rule="evenodd" stroke="#fff" stroke-linecap="square" stroke-width="1.541"/>
  <path transform="translate(0 2.3622)" d="m1257.2 701.78v14.031h75.844v-76.312h-54.688c-1.7681 6.7863-3.6477 13.529-5.7187 20.188-2.2058 7.0917-4.5849 14.125-7.125 21.062s-5.2287 13.789-8.0938 20.562c-0.067 0.15907-0.1513 0.30978-0.2188 0.46875z" fill="#808080" fill-rule="evenodd" stroke="#fff" stroke-linecap="square" stroke-width="1.541"/>
  <path transform="translate(0 2.3622)" d="m1278.3 639.5h54.688v-76.344h-41.75c-0.2266 2.7138-0.3508 5.4562-0.625 8.1562-0.7732 7.6136-1.7294 15.159-2.875 22.656s-2.4916 14.941-4 22.312-3.2007 14.67-5.0625 21.906c-0.1137 0.44202-0.26 0.871-0.375 1.3125z" fill="#808080" fill-rule="evenodd" stroke="#fff" stroke-linecap="square" stroke-width="1.541"/>
  <path transform="translate(0 2.3622)" d="m1291.2 563.16h41.75v-76.312h-41.75c0.4123 4.9387 0.8724 9.8613 1.125 14.844 0.3913 7.7203 0.5938 15.495 0.5938 23.312s-0.2025 15.592-0.5938 23.312c-0.2526 4.9824-0.7127 9.9051-1.125 14.844z" fill="#808080" fill-rule="evenodd" stroke="#fff" stroke-linecap="square" stroke-width="1.541"/>
  <path d="m1257.2 412.87h75.847v76.329h-75.847z" fill="#808080" fill-rule="evenodd" stroke="#fff" stroke-linecap="square" stroke-width="1.541"/>
  <path d="m1257.2 336.54h75.847v76.329h-75.847z" fill="#808080" fill-rule="evenodd" stroke="#fff" stroke-linecap="square" stroke-width="1.541"/>
  <path d="m1257.2 260.21h75.847v76.329h-75.847z" fill="#808080" fill-rule="evenodd" stroke="#fff" stroke-linecap="square" stroke-width="1.541"/>
  <path transform="translate(0 2.3622)" d="m1257.2 105.19v152.66h75.844v-152.66h-75.844z" fill="#5a8ea6" fill-rule="evenodd"/>
  <path d="m1257.2 31.225h75.847v76.329h-75.847z" fill="#808080" fill-rule="evenodd" stroke="#fff" stroke-linecap="square" stroke-width="1.541"/>
  <path d="m1181.3 947.17h75.847v76.329h-75.847z" fill="#808080" fill-rule="evenodd" stroke="#fff" stroke-linecap="square" stroke-width="1.541"/>
  <path d="m1181.3 870.84h75.847v76.329h-75.847z" fill="#808080" fill-rule="evenodd" stroke="#fff" stroke-linecap="square" stroke-width="1.541"/>
  <path transform="translate(0 2.3622)" d="m1181.3 822.59v45.875h75.844v-76.312h-51.469c-0.9269 1.2666-1.7791 2.5872-2.7187 3.8438-4.3475 5.8133-8.822 11.532-13.438 17.125-2.6601 3.2234-5.472 6.3212-8.2187 9.4688z" fill="#808080" fill-rule="evenodd" stroke="#fff" stroke-linecap="square" stroke-width="1.541"/>
  <path transform="translate(0 2.3622)" d="m1205.7 792.16h51.469v-76.344h-6.3437c-0.8584 1.8449-1.6488 3.7312-2.5313 5.5625-3.1805 6.6007-6.5134 13.113-10 19.531s-7.1232 12.743-10.906 18.969-7.7113 12.351-11.781 18.375c-3.1903 4.7222-6.5449 9.3131-9.9063 13.906z" fill="#808080" fill-rule="evenodd" stroke="#fff" stroke-linecap="square" stroke-width="1.541"/>
  <path transform="translate(0 2.3622)" d="m1250.8 715.81h6.3437v-14.031c-2.0081 4.7327-4.1808 9.3826-6.3437 14.031z" fill="#808080" fill-rule="evenodd" stroke="#fff" stroke-linecap="square" stroke-width="1.541"/>
  <path d="m1181.3 412.87h75.847v76.329h-75.847z" fill="#808080" fill-rule="evenodd" stroke="#fff" stroke-linecap="square" stroke-width="1.541"/>
  <path d="m1181.3 489.2h75.847v76.329h-75.847z" fill-rule="evenodd"/>
  <path d="m1181.3 336.54h75.847v76.329h-75.847z" fill="#808080" fill-rule="evenodd" stroke="#fff" stroke-linecap="square" stroke-width="1.541"/>
  <path transform="translate(0 2.3622)" d="m1250.8 334.19h6.3437v-76.344h-51.469c3.3614 4.5932 6.716 9.184 9.9063 13.906 4.0699 6.0244 7.9982 12.149 11.781 18.375s7.4197 12.551 10.906 18.969 6.8195 12.931 10 19.531c0.8825 1.8313 1.6729 3.7176 2.5313 5.5625z" fill="#808080" fill-rule="evenodd" stroke="#fff" stroke-linecap="square" stroke-width="1.541"/>
  <path transform="translate(0 2.3622)" d="m1250.8 334.19c-0.8584-1.8449-1.6488-3.7312-2.5313-5.5625-3.1805-6.6007-6.5134-13.113-10-19.531s-7.1232-12.743-10.906-18.969-7.7113-12.351-11.781-18.375c-3.1903-4.7222-6.5449-9.3131-9.9063-13.906h-24.375v76.344h69.5z" fill="#bfbfbf" fill-rule="evenodd"/>
  <path transform="translate(0 2.3622)" d="m1205.7 257.84h51.469v-76.312h-75.844v45.875c2.7467 3.1476 5.5586 6.2454 8.2187 9.4688 4.6156 5.5927 9.0901 11.312 13.438 17.125 0.9396 1.2565 1.7918 2.5772 2.7187 3.8438z" fill="#808080" fill-rule="evenodd" stroke="#fff" stroke-linecap="square" stroke-width="1.541"/>
  <path d="m1181.3 107.55h75.847v76.329h-75.847z" fill="#808080" fill-rule="evenodd" stroke="#fff" stroke-linecap="square" stroke-width="1.541"/>
  <path d="m1181.3 31.225h75.847v76.329h-75.847z" fill="#808080" fill-rule="evenodd" stroke="#fff" stroke-linecap="square" stroke-width="1.541"/>
  <path d="m1105.5 947.17h75.847v76.329h-75.847z" fill="#808080" fill-rule="evenodd" stroke="#fff" stroke-linecap="square" stroke-width="1.541"/>
  <path d="m1105.5 870.84h75.847v76.329h-75.847z" fill="#808080" fill-rule="evenodd" stroke="#fff" stroke-linecap="square" stroke-width="1.541"/>
  <path transform="translate(0 2.3622)" d="m1135.1 868.47h46.188v-45.875c-2.019 2.3137-3.9664 4.6969-6.0313 6.9688-4.874 5.3626-9.8769 10.596-15 15.719s-10.356 10.126-15.719 15c-3.0799 2.7993-6.2811 5.4728-9.4375 8.1875z" fill="#808080" fill-rule="evenodd" stroke="#fff" stroke-linecap="square" stroke-width="1.541"/>
  <path d="m1105.5 412.87h75.847v76.329h-75.847z" fill="#808080" fill-rule="evenodd" stroke="#fff" stroke-linecap="square" stroke-width="1.541"/>
  <path d="m1105.5 489.2h75.847v76.329h-75.847z" fill-rule="evenodd"/>
  <path d="m1105.5 336.54h75.847v76.329h-75.847z" fill="#808080" fill-rule="evenodd" stroke="#fff" stroke-linecap="square" stroke-width="1.541"/>
  <path d="m1105.5 260.21h75.847v76.329h-75.847z" fill="#808080" fill-rule="evenodd" stroke="#fff" stroke-linecap="square" stroke-width="1.541"/>
  <path transform="translate(0 2.3622)" d="m1291.2 563.16c0.4123-4.9387 0.8724-9.8613 1.125-14.844 0.3913-7.7203 0.5938-15.495 0.5938-23.312s-0.2025-15.592-0.5938-23.312c-0.2526-4.9824-0.7127-9.9051-1.125-14.844h-34.094v76.312h34.094z" fill-rule="evenodd"/>
  <path transform="translate(0 2.3622)" d="m1143.4 334.19v152.66h147.97c-4.5172-54.15-18.518-105.6-40.406-152.66h-107.56z" fill="#0001be" fill-rule="evenodd"/>
  <path transform="translate(0 2.3622)" d="m1181.3 227.41v-45.875h-46.188c3.1564 2.7147 6.3576 5.3882 9.4375 8.1875 5.3626 4.874 10.596 9.8769 15.719 15s10.126 10.356 15 15.719c2.0649 2.2719 4.0123 4.6551 6.0313 6.9688z" fill="#808080" fill-rule="evenodd" stroke="#fff" stroke-linecap="square" stroke-width="1.541"/>
  <path d="m1105.5 107.55h75.847v76.329h-75.847z" fill="#808080" fill-rule="evenodd" stroke="#fff" stroke-linecap="square" stroke-width="1.541"/>
  <path d="m1105.5 31.225h75.847v76.329h-75.847z" fill="#808080" fill-rule="evenodd" stroke="#fff" stroke-linecap="square" stroke-width="1.541"/>
  <path d="m1029.6 947.17h75.847v76.329h-75.847z" fill="#808080" fill-rule="evenodd" stroke="#fff" stroke-linecap="square" stroke-width="1.541"/>
  <path d="m1029.6 870.84h75.847v76.329h-75.847z" fill="#808080" fill-rule="evenodd" stroke="#fff" stroke-linecap="square" stroke-width="1.541"/>
  <path d="m1029.6 412.87h75.847v76.329h-75.847z" fill="#808080" fill-rule="evenodd" stroke="#fff" stroke-linecap="square" stroke-width="1.541"/>
  <path d="m1029.6 489.2h75.847v76.329h-75.847z" fill-rule="evenodd"/>
  <path d="m1029.6 336.54h75.847v76.329h-75.847z" fill="#808080" fill-rule="evenodd" stroke="#fff" stroke-linecap="square" stroke-width="1.541"/>
  <path d="m1029.6 260.21h75.847v76.329h-75.847z" fill="#808080" fill-rule="evenodd" stroke="#fff" stroke-linecap="square" stroke-width="1.541"/>
  <path d="m1029.6 107.55h75.847v76.329h-75.847z" fill="#808080" fill-rule="evenodd" stroke="#fff" stroke-linecap="square" stroke-width="1.541"/>
  <path d="m1029.6 31.225h75.847v76.329h-75.847z" fill="#808080" fill-rule="evenodd" stroke="#fff" stroke-linecap="square" stroke-width="1.541"/>
  <path d="m953.77 947.17h75.847v76.329h-75.847z" fill="#808080" fill-rule="evenodd" stroke="#fff" stroke-linecap="square" stroke-width="1.541"/>
  <path d="m953.77 870.84h75.847v76.329h-75.847z" fill="#808080" fill-rule="evenodd" stroke="#fff" stroke-linecap="square" stroke-width="1.541"/>
  <path d="m991.74 718.18h151.17v76.329h-151.17z" fill="#ccc" fill-rule="evenodd"/>
  <path d="m953.77 412.87h75.847v76.329h-75.847z" fill="#808080" fill-rule="evenodd" stroke="#fff" stroke-linecap="square" stroke-width="1.541"/>
  <path d="m953.77 489.2h75.847v76.329h-75.847z" fill-rule="evenodd"/>
  <path d="m953.77 336.54h75.847v76.329h-75.847z" fill="#808080" fill-rule="evenodd" stroke="#fff" stroke-linecap="square" stroke-width="1.541"/>
  <path d="m953.77 260.21h75.847v76.329h-75.847z" fill="#808080" fill-rule="evenodd" stroke="#fff" stroke-linecap="square" stroke-width="1.541"/>
  <path d="m953.77 183.88h75.847v76.329h-75.847z" fill="#808080" fill-rule="evenodd" stroke="#fff" stroke-linecap="square" stroke-width="1.541"/>
  <path d="m953.77 107.55h75.847v76.329h-75.847z" fill="#808080" fill-rule="evenodd" stroke="#fff" stroke-linecap="square" stroke-width="1.541"/>
  <path d="m953.77 31.225h75.847v76.329h-75.847z" fill="#808080" fill-rule="evenodd" stroke="#fff" stroke-linecap="square" stroke-width="1.541"/>
  <path d="m877.92 947.17h75.847v76.329h-75.847z" fill="#808080" fill-rule="evenodd" stroke="#fff" stroke-linecap="square" stroke-width="1.541"/>
  <path d="m877.92 870.84h75.847v76.329h-75.847z" fill="#808080" fill-rule="evenodd" stroke="#fff" stroke-linecap="square" stroke-width="1.541"/>
  <path d="m877.92 412.87h75.847v76.329h-75.847z" fill="#808080" fill-rule="evenodd" stroke="#fff" stroke-linecap="square" stroke-width="1.541"/>
  <path d="m877.92 489.2h75.847v76.329h-75.847z" fill-rule="evenodd"/>
  <path d="m877.92 336.54h75.847v76.329h-75.847z" fill="#808080" fill-rule="evenodd" stroke="#fff" stroke-linecap="square" stroke-width="1.541"/>
  <path d="m877.92 260.21h75.847v76.329h-75.847z" fill="#808080" fill-rule="evenodd" stroke="#fff" stroke-linecap="square" stroke-width="1.541"/>
  <path d="m877.92 183.88h75.847v76.329h-75.847z" fill="#808080" fill-rule="evenodd" stroke="#fff" stroke-linecap="square" stroke-width="1.541"/>
  <path d="m877.92 107.55h75.847v76.329h-75.847z" fill="#808080" fill-rule="evenodd" stroke="#fff" stroke-linecap="square" stroke-width="1.541"/>
  <path d="m877.92 31.225h75.847v76.329h-75.847z" fill="#808080" fill-rule="evenodd" stroke="#fff" stroke-linecap="square" stroke-width="1.541"/>
  <path d="m802.08 947.17h75.847v76.329h-75.847z" fill="#808080" fill-rule="evenodd" stroke="#fff" stroke-linecap="square" stroke-width="1.541"/>
  <path d="m802.08 870.84h75.847v76.329h-75.847z" fill="#808080" fill-rule="evenodd" stroke="#fff" stroke-linecap="square" stroke-width="1.541"/>
  <path d="m840 718.18h151.74v76.329h-151.74z" fill="#999" fill-rule="evenodd"/>
  <path d="m802.08 565.53h75.847v76.329h-75.847z" fill="#808080" fill-rule="evenodd" stroke="#fff" stroke-linecap="square" stroke-width="1.541"/>
  <path d="m802.08 489.2h75.847v76.329h-75.847z" fill-rule="evenodd" stroke="#fff" stroke-linecap="square" stroke-width="1.541"/>
  <path d="m802.08 412.87h75.847v76.329h-75.847z" fill="#808080" fill-rule="evenodd" stroke="#fff" stroke-linecap="square" stroke-width="1.541"/>
  <path d="m802.08 336.54h75.847v76.329h-75.847z" fill="#808080" fill-rule="evenodd" stroke="#fff" stroke-linecap="square" stroke-width="1.541"/>
  <path d="m802.08 260.21h75.847v76.329h-75.847z" fill="#808080" fill-rule="evenodd" stroke="#fff" stroke-linecap="square" stroke-width="1.541"/>
  <path d="m802.08 183.88h75.847v76.329h-75.847z" fill="#808080" fill-rule="evenodd" stroke="#fff" stroke-linecap="square" stroke-width="1.541"/>
  <path d="m802.08 107.55h75.847v76.329h-75.847z" fill="#808080" fill-rule="evenodd" stroke="#fff" stroke-linecap="square" stroke-width="1.541"/>
  <path d="m802.08 31.225h75.847v76.329h-75.847z" fill="#808080" fill-rule="evenodd" stroke="#fff" stroke-linecap="square" stroke-width="1.541"/>
  <path d="m726.23 947.17h75.847v76.329h-75.847z" fill="#808080" fill-rule="evenodd" stroke="#fff" stroke-linecap="square" stroke-width="1.541"/>
  <path d="m726.23 870.84h75.847v76.329h-75.847z" fill="#808080" fill-rule="evenodd" stroke="#fff" stroke-linecap="square" stroke-width="1.541"/>
  <path d="m726.23 412.87h75.847v76.329h-75.847z" fill="#808080" fill-rule="evenodd" stroke="#fff" stroke-linecap="square" stroke-width="1.541"/>
  <path d="m726.23 489.2h75.847v76.329h-75.847z" fill-rule="evenodd"/>
  <path d="m726.23 336.54h75.847v76.329h-75.847z" fill="#808080" fill-rule="evenodd" stroke="#fff" stroke-linecap="square" stroke-width="1.541"/>
  <path d="m726.23 260.21h75.847v76.329h-75.847z" fill="#808080" fill-rule="evenodd" stroke="#fff" stroke-linecap="square" stroke-width="1.541"/>
  <path d="m726.23 183.88h75.847v76.329h-75.847z" fill="#808080" fill-rule="evenodd" stroke="#fff" stroke-linecap="square" stroke-width="1.541"/>
  <path d="m726.23 107.55h75.847v76.329h-75.847z" fill="#808080" fill-rule="evenodd" stroke="#fff" stroke-linecap="square" stroke-width="1.541"/>
  <path d="m726.23 31.225h75.847v76.329h-75.847z" fill="#808080" fill-rule="evenodd" stroke="#fff" stroke-linecap="square" stroke-width="1.541"/>
  <path d="m650.38 947.17h75.847v76.329h-75.847z" fill="#808080" fill-rule="evenodd" stroke="#fff" stroke-linecap="square" stroke-width="1.541"/>
  <path d="m650.38 870.84h75.847v76.329h-75.847z" fill="#808080" fill-rule="evenodd" stroke="#fff" stroke-linecap="square" stroke-width="1.541"/>
  <path d="m687.37 718.18h152.63v76.329h-152.63z" fill="#666" fill-rule="evenodd"/>
  <path d="m650.38 412.87h75.847v76.329h-75.847z" fill="#808080" fill-rule="evenodd" stroke="#fff" stroke-linecap="square" stroke-width="1.541"/>
  <path d="m650.38 489.2h75.847v76.329h-75.847z" fill-rule="evenodd"/>
  <path d="m650.38 336.54h75.847v76.329h-75.847z" fill="#808080" fill-rule="evenodd" stroke="#fff" stroke-linecap="square" stroke-width="1.541"/>
  <path d="m650.38 260.21h75.847v76.329h-75.847z" fill="#808080" fill-rule="evenodd" stroke="#fff" stroke-linecap="square" stroke-width="1.541"/>
  <path d="m650.38 183.88h75.847v76.329h-75.847z" fill="#808080" fill-rule="evenodd" stroke="#fff" stroke-linecap="square" stroke-width="1.541"/>
  <path d="m650.38 107.55h75.847v76.329h-75.847z" fill="#808080" fill-rule="evenodd" stroke="#fff" stroke-linecap="square" stroke-width="1.541"/>
  <path d="m650.38 31.225h75.847v76.329h-75.847z" fill="#808080" fill-rule="evenodd" stroke="#fff" stroke-linecap="square" stroke-width="1.541"/>
  <path d="m574.54 947.17h75.847v76.329h-75.847z" fill="#808080" fill-rule="evenodd" stroke="#fff" stroke-linecap="square" stroke-width="1.541"/>
  <path d="m574.54 870.84h75.847v76.329h-75.847z" fill="#808080" fill-rule="evenodd" stroke="#fff" stroke-linecap="square" stroke-width="1.541"/>
  <path d="m574.54 412.87h75.847v76.329h-75.847z" fill="#808080" fill-rule="evenodd" stroke="#fff" stroke-linecap="square" stroke-width="1.541"/>
  <path d="m574.54 489.2h75.847v76.329h-75.847z" fill-rule="evenodd"/>
  <path d="m574.54 336.54h75.847v76.329h-75.847z" fill="#808080" fill-rule="evenodd" stroke="#fff" stroke-linecap="square" stroke-width="1.541"/>
  <path d="m574.54 260.21h75.847v76.329h-75.847z" fill="#808080" fill-rule="evenodd" stroke="#fff" stroke-linecap="square" stroke-width="1.541"/>
  <path d="m574.54 107.55h75.847v76.329h-75.847z" fill="#808080" fill-rule="evenodd" stroke="#fff" stroke-linecap="square" stroke-width="1.541"/>
  <path d="m574.54 31.225h75.847v76.329h-75.847z" fill="#808080" fill-rule="evenodd" stroke="#fff" stroke-linecap="square" stroke-width="1.541"/>
  <path d="m498.69 947.17h75.847v76.329h-75.847z" fill="#808080" fill-rule="evenodd" stroke="#fff" stroke-linecap="square" stroke-width="1.541"/>
  <path d="m498.69 870.84h75.847v76.329h-75.847z" fill="#808080" fill-rule="evenodd" stroke="#fff" stroke-linecap="square" stroke-width="1.541"/>
  <path transform="translate(0 2.3622)" d="m498.69 822.59v45.875h46.188c-3.1564-2.7147-6.3576-5.3882-9.4375-8.1875-5.3626-4.874-10.596-9.8769-15.719-15s-10.126-10.356-15-15.719c-2.0649-2.2719-4.0123-4.6551-6.0312-6.9688z" fill="#808080" fill-rule="evenodd" stroke="#fff" stroke-linecap="square" stroke-width="1.541"/>
  <path d="m537.64 718.18h149.73v76.329h-149.73z" fill="#333" fill-rule="evenodd"/>
  <path d="m498.69 412.87h75.847v76.329h-75.847z" fill="#808080" fill-rule="evenodd" stroke="#fff" stroke-linecap="square" stroke-width="1.541"/>
  <path d="m498.69 489.2h75.847v76.329h-75.847z" fill-rule="evenodd"/>
  <path d="m498.69 336.54h75.847v76.329h-75.847z" fill="#808080" fill-rule="evenodd" stroke="#fff" stroke-linecap="square" stroke-width="1.541"/>
  <path d="m498.69 260.21h75.847v76.329h-75.847z" fill="#808080" fill-rule="evenodd" stroke="#fff" stroke-linecap="square" stroke-width="1.541"/>
  <path transform="translate(0 2.3622)" d="m544.88 181.53h-46.188v45.875c2.019-2.3137 3.9664-4.6969 6.0312-6.9688 4.874-5.3626 9.8769-10.596 15-15.719s10.356-10.126 15.719-15c3.0799-2.7993 6.2811-5.4728 9.4375-8.1875z" fill="#808080" fill-rule="evenodd" stroke="#fff" stroke-linecap="square" stroke-width="1.541"/>
  <path d="m498.69 107.55h75.847v76.329h-75.847z" fill="#808080" fill-rule="evenodd" stroke="#fff" stroke-linecap="square" stroke-width="1.541"/>
  <path d="m498.69 31.225h75.847v76.329h-75.847z" fill="#808080" fill-rule="evenodd" stroke="#fff" stroke-linecap="square" stroke-width="1.541"/>
  <path d="m422.84 947.17h75.847v76.329h-75.847z" fill="#808080" fill-rule="evenodd" stroke="#fff" stroke-linecap="square" stroke-width="1.541"/>
  <path d="m422.84 870.84h75.847v76.329h-75.847z" fill="#808080" fill-rule="evenodd" stroke="#fff" stroke-linecap="square" stroke-width="1.541"/>
  <path transform="translate(0 2.3622)" d="m474.31 792.16h-51.469v76.312h75.844v-45.875c-2.7467-3.1476-5.5586-6.2454-8.2188-9.4688-4.6155-5.5927-9.09-11.312-13.438-17.125-0.93969-1.2565-1.7918-2.5772-2.7188-3.8438z" fill="#808080" fill-rule="evenodd" stroke="#fff" stroke-linecap="square" stroke-width="1.541"/>
  <path transform="translate(0 2.3622)" d="m429.19 715.81h-6.3438v76.344h51.469c-3.3614-4.5932-6.716-9.184-9.9062-13.906-4.07-6.0244-7.9982-12.149-11.781-18.375s-7.4197-12.551-10.906-18.969-6.8194-12.931-10-19.531c-0.88243-1.8313-1.6728-3.7176-2.5312-5.5625z" fill="#808080" fill-rule="evenodd" stroke="#fff" stroke-linecap="square" stroke-width="1.541"/>
  <path transform="translate(0 2.3622)" d="m422.84 701.78v14.031h6.3438c-2.1629-4.6486-4.3356-9.2986-6.3438-14.031z" fill="#808080" fill-rule="evenodd" stroke="#fff" stroke-linecap="square" stroke-width="1.541"/>
  <path d="m422.84 412.87h75.847v76.329h-75.847z" fill="#808080" fill-rule="evenodd" stroke="#fff" stroke-linecap="square" stroke-width="1.541"/>
  <path d="m422.84 489.2h75.847v76.329h-75.847z" fill-rule="evenodd"/>
  <path d="m422.84 336.54h75.847v76.329h-75.847z" fill="#808080" fill-rule="evenodd" stroke="#fff" stroke-linecap="square" stroke-width="1.541"/>
  <path transform="translate(0 2.3622)" d="m474.31 257.84h-51.469v76.344h6.3438c0.85841-1.8449 1.6488-3.7312 2.5312-5.5625 3.1806-6.6007 6.5135-13.113 10-19.531s7.1232-12.743 10.906-18.969 7.7113-12.351 11.781-18.375c3.1903-4.7222 6.5448-9.3131 9.9062-13.906z" fill="#808080" fill-rule="evenodd" stroke="#fff" stroke-linecap="square" stroke-width="1.541"/>
  <path transform="translate(0 2.3622)" d="m498.69 227.41v-45.875h-75.844v76.312h51.469c0.9269-1.2666 1.7791-2.5872 2.7188-3.8438 4.3475-5.8133 8.822-11.532 13.438-17.125 2.6601-3.2234 5.4721-6.3212 8.2188-9.4688z" fill="#808080" fill-rule="evenodd" stroke="#fff" stroke-linecap="square" stroke-width="1.541"/>
  <path transform="translate(0 2.3622)" d="m474.31 257.84c-3.3614 4.5932-6.716 9.184-9.9062 13.906-4.07 6.0244-7.9982 12.149-11.781 18.375s-7.4197 12.551-10.906 18.969-6.8194 12.931-10 19.531c-0.88243 1.8313-1.6728 3.7176-2.5312 5.5625h69.5v-76.344h-24.375z" fill-rule="evenodd"/>
  <path d="m422.84 107.55h75.847v76.329h-75.847z" fill="#808080" fill-rule="evenodd" stroke="#fff" stroke-linecap="square" stroke-width="1.541"/>
  <path d="m422.84 31.225h75.847v76.329h-75.847z" fill="#808080" fill-rule="evenodd" stroke="#fff" stroke-linecap="square" stroke-width="1.541"/>
  <path d="m346.99 947.17h75.847v76.329h-75.847z" fill="#808080" fill-rule="evenodd" stroke="#fff" stroke-linecap="square" stroke-width="1.541"/>
  <path transform="translate(0 2.3622)" d="m347 792.16v152.66h75.844v-152.66h-75.844z" fill="#a57159" fill-rule="evenodd"/>
  <path d="m346.99 718.18h75.847v76.329h-75.847z" fill="#808080" fill-rule="evenodd" stroke="#fff" stroke-linecap="square" stroke-width="1.541"/>
  <path transform="translate(0 2.3622)" d="m401.69 639.5h-54.688v76.312h75.844v-14.031c-0.0675-0.15897-0.15147-0.30968-0.21875-0.46875-2.8651-6.7739-5.5536-13.625-8.0938-20.562s-4.9192-13.971-7.125-21.062c-2.071-6.6585-3.9506-13.401-5.7188-20.188z" fill="#808080" fill-rule="evenodd" stroke="#fff" stroke-linecap="square" stroke-width="1.541"/>
  <path transform="translate(0 2.3622)" d="m388.75 563.16h-41.75v76.344h54.688c-0.11503-0.4415-0.26127-0.87048-0.375-1.3125-1.8618-7.2364-3.554-14.535-5.0625-21.906s-2.8544-14.815-4-22.312-2.1018-15.043-2.875-22.656c-0.2742-2.7-0.39844-5.4424-0.625-8.1562z" fill="#808080" fill-rule="evenodd" stroke="#fff" stroke-linecap="square" stroke-width="1.541"/>
  <path transform="translate(0 2.3622)" d="m388.75 486.84h-41.75v76.312h41.75c-0.4123-4.9387-0.87244-9.8613-1.125-14.844-0.39134-7.7203-0.59375-15.495-0.59375-23.312s0.20241-15.592 0.59375-23.312c0.25256-4.9824 0.7127-9.9051 1.125-14.844z" fill="#808080" fill-rule="evenodd" stroke="#fff" stroke-linecap="square" stroke-width="1.541"/>
  <path transform="translate(0 2.3622)" d="m388.76 562.1c0.22656 2.7138 0.3508 6.5087 0.625 9.2087 0.7732 7.6136 1.7231 15.159 2.8687 22.656s2.4916 14.941 4 22.312 3.2007 14.67 5.0625 21.906c0.11373 0.44202 0.25997 0.871 0.375 1.3125 1.7681 6.7863 3.6477 13.529 5.7188 20.188 2.2058 7.0917 4.5848 14.125 7.125 21.062s5.2286 13.789 8.0938 20.562c0.0673 0.15907 0.15129 0.30978 0.21875 0.46875 2.0082 4.7327 4.1808 9.3826 6.3438 14.031h32.25v-76.312h-0.0937v-77.396h-38.5z" fill-rule="evenodd"/>
  <path d="m346.99 412.87h75.847v76.329h-75.847z" fill="#808080" fill-rule="evenodd" stroke="#fff" stroke-linecap="square" stroke-width="1.541"/>
  <path transform="translate(0 2.3622)" d="m388.75 486.84c-0.4123 4.9387-0.87244 9.8613-1.125 14.844-0.39134 7.7203-0.59375 15.495-0.59375 23.312s0.20241 15.592 0.59375 23.312c0.25256 4.9824 0.7127 9.9051 1.125 14.844h34.094v-76.312z" fill-rule="evenodd"/>
  <path d="m346.99 336.54h75.847v76.329h-75.847z" fill="#808080" fill-rule="evenodd" stroke="#fff" stroke-linecap="square" stroke-width="1.541"/>
  <path d="m346.99 260.21h75.847v76.329h-75.847z" fill="#808080" fill-rule="evenodd" stroke="#fff" stroke-linecap="square" stroke-width="1.541"/>
  <path transform="translate(0 2.3622)" d="m347 105.19v152.66h75.844v-152.66h-75.844z" fill="#5a8ea6" fill-rule="evenodd"/>
  <path d="m346.99 31.225h75.847v76.329h-75.847z" fill="#808080" fill-rule="evenodd" stroke="#fff" stroke-linecap="square" stroke-width="1.541"/>
  <path d="m271.15 947.17h75.847v76.329h-75.847z" fill="#808080" fill-rule="evenodd" stroke="#fff" stroke-linecap="square" stroke-width="1.541"/>
  <path d="m271.16 527.84v419.33h75.844v-419.33h-75.844z" fill="#a65979" fill-rule="evenodd"/>
  <path d="m271.16 107.55v420.29h75.844v-420.29h-75.844z" fill="#58a68e" fill-rule="evenodd"/>
  <path d="m271.15 31.225h75.847v76.329h-75.847z" fill="#808080" fill-rule="evenodd" stroke="#fff" stroke-linecap="square" stroke-width="1.541"/>
  <path d="m195.3 947.17h75.847v76.329h-75.847z" fill="#808080" fill-rule="evenodd" stroke="#fff" stroke-linecap="square" stroke-width="1.541"/>
  <path d="m195.3 870.84h75.847v76.329h-75.847z" fill="#808080" fill-rule="evenodd" stroke="#fff" stroke-linecap="square" stroke-width="1.541"/>
  <path d="m195.3 794.51h75.847v76.329h-75.847z" fill="#808080" fill-rule="evenodd" stroke="#fff" stroke-linecap="square" stroke-width="1.541"/>
  <path d="m195.3 718.18h75.847v76.329h-75.847z" fill="#808080" fill-rule="evenodd" stroke="#fff" stroke-linecap="square" stroke-width="1.541"/>
  <path d="m195.3 641.86h75.847v76.329h-75.847z" fill="#808080" fill-rule="evenodd" stroke="#fff" stroke-linecap="square" stroke-width="1.541"/>
  <path d="m195.3 565.53h75.847v76.329h-75.847z" fill="#808080" fill-rule="evenodd" stroke="#fff" stroke-linecap="square" stroke-width="1.541"/>
  <path d="m195.3 489.2h75.847v76.329h-75.847z" fill="#808080" fill-rule="evenodd" stroke="#fff" stroke-linecap="square" stroke-width="1.541"/>
  <path d="m195.3 412.87h75.847v76.329h-75.847z" fill="#808080" fill-rule="evenodd" stroke="#fff" stroke-linecap="square" stroke-width="1.541"/>
  <path d="m195.3 336.54h75.847v76.329h-75.847z" fill="#808080" fill-rule="evenodd" stroke="#fff" stroke-linecap="square" stroke-width="1.541"/>
  <path d="m195.3 260.21h75.847v76.329h-75.847z" fill="#808080" fill-rule="evenodd" stroke="#fff" stroke-linecap="square" stroke-width="1.541"/>
  <path d="m195.3 183.88h75.847v76.329h-75.847z" fill="#808080" fill-rule="evenodd" stroke="#fff" stroke-linecap="square" stroke-width="1.541"/>
  <path d="m195.3 107.55h75.847v76.329h-75.847z" fill="#808080" fill-rule="evenodd" stroke="#fff" stroke-linecap="square" stroke-width="1.541"/>
  <path d="m195.3 31.225h75.847v76.329h-75.847z" fill="#808080" fill-rule="evenodd" stroke="#fff" stroke-linecap="square" stroke-width="1.541"/>
  <path d="m119.45 947.17h75.847v76.329h-75.847z" fill="#808080" fill-rule="evenodd" stroke="#fff" stroke-linecap="square" stroke-width="1.541"/>
  <path d="m119.45 870.84h75.847v76.329h-75.847z" fill="#808080" fill-rule="evenodd" stroke="#fff" stroke-linecap="square" stroke-width="1.541"/>
  <path d="m119.45 794.51h75.847v76.329h-75.847z" fill="#808080" fill-rule="evenodd" stroke="#fff" stroke-linecap="square" stroke-width="1.541"/>
  <path d="m119.45 718.18h75.847v76.329h-75.847z" fill="#808080" fill-rule="evenodd" stroke="#fff" stroke-linecap="square" stroke-width="1.541"/>
  <path d="m119.45 641.86h75.847v76.329h-75.847z" fill="#808080" fill-rule="evenodd" stroke="#fff" stroke-linecap="square" stroke-width="1.541"/>
  <path d="m119.45 565.53h75.847v76.329h-75.847z" fill="#808080" fill-rule="evenodd" stroke="#fff" stroke-linecap="square" stroke-width="1.541"/>
  <path d="m119.45 489.2h75.847v76.329h-75.847z" fill="#808080" fill-rule="evenodd" stroke="#fff" stroke-linecap="square" stroke-width="1.541"/>
  <path d="m119.45 412.87h75.847v76.329h-75.847z" fill="#808080" fill-rule="evenodd" stroke="#fff" stroke-linecap="square" stroke-width="1.541"/>
  <path d="m119.45 336.54h75.847v76.329h-75.847z" fill="#808080" fill-rule="evenodd" stroke="#fff" stroke-linecap="square" stroke-width="1.541"/>
  <path d="m119.45 260.21h75.847v76.329h-75.847z" fill="#808080" fill-rule="evenodd" stroke="#fff" stroke-linecap="square" stroke-width="1.541"/>
  <path d="m119.45 183.88h75.847v76.329h-75.847z" fill="#808080" fill-rule="evenodd" stroke="#fff" stroke-linecap="square" stroke-width="1.541"/>
  <path d="m119.45 107.55h75.847v76.329h-75.847z" fill="#808080" fill-rule="evenodd" stroke="#fff" stroke-linecap="square" stroke-width="1.541"/>
  <path d="m119.45 31.225h75.847v76.329h-75.847z" fill="#808080" fill-rule="evenodd" stroke="#fff" stroke-linecap="square" stroke-width="1.541"/>
  <path d="m43.605 947.17h75.847v76.329h-75.847z" fill="#808080" fill-rule="evenodd" stroke="#fff" stroke-linecap="square" stroke-width="1.541"/>
  <path d="m43.605 870.84h75.847v76.329h-75.847z" fill="#808080" fill-rule="evenodd" stroke="#fff" stroke-linecap="square" stroke-width="1.541"/>
  <path d="m43.605 794.51h75.847v76.329h-75.847z" fill="#808080" fill-rule="evenodd" stroke="#fff" stroke-linecap="square" stroke-width="1.541"/>
  <path d="m43.605 718.18h75.847v76.329h-75.847z" fill="#808080" fill-rule="evenodd" stroke="#fff" stroke-linecap="square" stroke-width="1.541"/>
  <path d="m43.605 641.86h75.847v76.329h-75.847z" fill="#808080" fill-rule="evenodd" stroke="#fff" stroke-linecap="square" stroke-width="1.541"/>
  <path d="m43.605 565.53h75.847v76.329h-75.847z" fill="#808080" fill-rule="evenodd" stroke="#fff" stroke-linecap="square" stroke-width="1.541"/>
  <path d="m43.605 489.2h75.847v76.329h-75.847z" fill="#808080" fill-rule="evenodd" stroke="#fff" stroke-linecap="square" stroke-width="1.541"/>
  <path d="m43.605 412.87h75.847v76.329h-75.847z" fill="#808080" fill-rule="evenodd" stroke="#fff" stroke-linecap="square" stroke-width="1.541"/>
  <path d="m43.605 336.54h75.847v76.329h-75.847z" fill="#808080" fill-rule="evenodd" stroke="#fff" stroke-linecap="square" stroke-width="1.541"/>
  <path d="m43.605 260.21h75.847v76.329h-75.847z" fill="#808080" fill-rule="evenodd" stroke="#fff" stroke-linecap="square" stroke-width="1.541"/>
  <path d="m43.605 183.88h75.847v76.329h-75.847z" fill="#808080" fill-rule="evenodd" stroke="#fff" stroke-linecap="square" stroke-width="1.541"/>
  <path d="m43.605 107.55h75.847v76.329h-75.847z" fill="#808080" fill-rule="evenodd" stroke="#fff" stroke-linecap="square" stroke-width="1.541"/>
  <path d="m43.605 31.225h75.847v76.329h-75.847z" fill="#808080" fill-rule="evenodd" stroke="#fff" stroke-linecap="square" stroke-width="1.541"/>
  <path transform="translate(0 2.3622)" d="m1136.2 867.69c-170.08 147.01-422.25 147.03-592.35 0.04737" fill="#c0c000" fill-rule="evenodd"/>
  <path transform="translate(0 2.3622)" d="m474.31 792.16c0.9269 1.2666 1.7791 2.5872 2.7188 3.8438 4.3475 5.8133 8.822 11.532 13.438 17.125 2.6601 3.2234 5.4721 6.3212 8.2188 9.4688 2.019 2.3137 3.9664 4.6969 6.0312 6.9688 4.874 5.3626 9.8769 10.596 15 15.719s10.356 10.126 15.719 15c3.0799 2.7993 6.2811 5.4728 9.4375 8.1875h68.281v-76.312h-138.84z" fill="#fff" fill-rule="evenodd"/>
  <path transform="translate(0 2.3622)" d="m429.19 715.81c0.85841 1.8449 1.6488 3.7312 2.5312 5.5625 3.1806 6.6007 6.5135 13.113 10 19.531s7.1232 12.743 10.906 18.969 7.7113 12.351 11.781 18.375c3.1903 4.7222 6.5448 9.3131 9.9062 13.906h63.33v-76.344z" fill-rule="evenodd"/>
  <path transform="translate(0 2.3622)" d="m1067.3 792.16v76.312h67.781c3.1564-2.7147 6.3576-5.3882 9.4375-8.1875 5.3626-4.874 10.596-9.8769 15.719-15s10.126-10.356 15-15.719c2.0651-2.2719 4.0123-4.6551 6.0313-6.9688 2.7467-3.1476 5.5588-6.2454 8.2187-9.4688 4.6158-5.5927 9.0899-11.312 13.438-17.125 0.9394-1.2565 1.7918-2.5772 2.7187-3.8438h-138.34z" fill="#fff" fill-rule="evenodd"/>
  <path d="m613.2 794.51h454.15v76.329h-454.15z" fill-rule="evenodd"/>
  <path d="m536.62 336.55v152.66h151.69v-152.66h-151.69z" fill="#00c0bf" fill-rule="evenodd"/>
  <path d="m688.31 336.55v152.66h151.69v-152.66h-151.69z" fill="#00bf00" fill-rule="evenodd"/>
  <path d="m840 336.55v152.66h151.69v-152.66h-151.69z" fill="#bf00bf" fill-rule="evenodd"/>
  <path d="m991.69 336.55v152.66h151.69v-152.66h-151.69z" fill="#be0002" fill-rule="evenodd"/>
  <path d="m536.61 336.54v152.66h-147.97c4.5172-54.15 18.518-105.6 40.406-152.66h107.56z" fill="#c0c000" fill-rule="evenodd"/>
  <path d="m802.08 527.35h75.844" fill-rule="evenodd" stroke="#fff" stroke-linecap="square" stroke-width="1.514"/>
  <path transform="translate(0 2.3622)" d="m422.84 562.1-3e-3 -75.268" fill="none" stroke="#fff" stroke-width="1.51"/>
  <path d="m498.69 565.53-3e-3 -76.329" fill="none" stroke="#fff" stroke-width="1.51"/>
  <path d="m460.03 565.19v152.98h153.58v-152.98h-153.58z" fill="url(#r)" fill-rule="evenodd"/>
  <path d="m574.54 565.53-3e-3 -76.329" fill="none" stroke="#fff" stroke-width="1.51"/>
  <path d="m650.39 565.53-3e-3 -76.329" fill="none" stroke="#fff" stroke-width="1.51"/>
  <path d="m726.23 565.53-3e-3 -76.329" fill="none" stroke="#fff" stroke-width="1.51"/>
  <path d="m802.08 565.53-3e-3 -76.329" fill="none" stroke="#fff" stroke-width="1.51"/>
  <path d="m953.77 565.53-3e-3 -76.329" fill="none" stroke="#fff" stroke-width="1.51"/>
  <path d="m1029.6 565.53v-76.329" fill="none" stroke="#fff" stroke-width="1.51"/>
  <path d="m1105.5 565.53v-76.329" fill="none" stroke="#fff" stroke-width="1.51"/>
  <path d="m1181.3 565.53v-76.329" fill="none" stroke="#fff" stroke-width="1.51"/>
  <path d="m1257.2 565.53v-76.329" fill="none" stroke="#fff" stroke-width="1.51"/>
  <path d="m1291.3 564.47c-0.2266 2.7138-0.3508 6.5087-0.625 9.2087-0.7732 7.6136-1.7232 15.159-2.8687 22.656s-2.4916 14.941-4.0001 22.312-3.2006 14.67-5.0625 21.906c-0.1137 0.44202-0.2599 0.871-0.375 1.3125-1.7681 6.7863-3.6477 13.529-5.7187 20.188-2.2058 7.0917-4.5848 14.125-7.125 21.062s-5.2286 13.789-8.0938 20.562c-0.067 0.15907-0.1512 0.30978-0.2187 0.46875-2.0082 4.7327-4.1808 9.3826-6.3438 14.031h-32.25v-76.312h0.094v-77.396h38.5z" fill-rule="evenodd"/>
  <path d="m613.23 565.19v152.98h52.907v-152.98h-52.907z" fill="url(#q)" fill-rule="evenodd"/>
  <path d="m665.84 565.19v152.98h52.907v-152.98h-52.907z" fill="url(#p)" fill-rule="evenodd"/>
  <path d="m717.32 565.19v152.98h52.907v-152.98h-52.907z" fill="url(#o)" fill-rule="evenodd"/>
  <path d="m769.36 565.19v152.98h31.903v-152.98h-31.903z" fill="url(#n)" fill-rule="evenodd"/>
  <path d="m800.73 642.66v75.51h31.745v-75.51h-31.745z" fill="url(#m)" fill-rule="evenodd"/>
  <path d="m832.37 642.66v75.51h31.745v-75.51h-31.745z" fill="url(#l)" fill-rule="evenodd"/>
  <path d="m863.74 565.19v152.98h31.745v-152.98h-31.745z" fill="url(#k)" fill-rule="evenodd"/>
  <path d="m802.08 412.85v229h75.844v-229h-75.844z" fill-rule="evenodd" stroke="#fff" stroke-linecap="square" stroke-width="1.541"/>
  <path transform="translate(0 2.3622)" d="m387.04 525h905.91" fill-rule="evenodd" stroke="#fff" stroke-linecap="square" stroke-width="1.514"/>
  <path d="m840 413.37v228.48" fill-rule="evenodd" stroke="#fff" stroke-linecap="square" stroke-width="1.514"/>
  <path d="m895.42 565.19v152.98h31.745v-152.98h-31.745z" fill="url(#j)" fill-rule="evenodd"/>
  <path d="m927.18 565.19v152.98h20.537v-152.98h-20.537z" fill="url(#i)" fill-rule="evenodd"/>
  <path d="m947.47 565.2v152.97h20.537v-152.97h-20.537z" fill="url(#e)" fill-rule="evenodd"/>
  <path d="m967.94 565.2v152.97h20.537v-152.97h-20.537z" fill="url(#f)" fill-rule="evenodd"/>
  <path d="m988.24 565.19v152.98h20.537v-152.98h-20.537z" fill="url(#g)" fill-rule="evenodd"/>
  <path d="m1008.7 565.19v152.98h20.537v-152.98h-20.537z" fill="url(#h)" fill-rule="evenodd"/>
  <path d="m1029.2 565.2v152.97h20.537v-152.97h-20.537z" fill="url(#d)" fill-rule="evenodd"/>
  <path d="m1049.5 565.19v152.98h20.537v-152.98h-20.537z" fill="url(#c)" fill-rule="evenodd"/>
  <path d="m1070 565.19v152.98h20.537v-152.98h-20.537z" fill="url(#b)" fill-rule="evenodd"/>
  <g transform="matrix(.4489 0 0 1 729.43 0)" fill-rule="evenodd">
   <path d="m947.47 565.2v152.97h20.537v-152.97h-20.537z" fill="url(#e)"/>
   <path d="m967.94 565.2v152.97h20.537v-152.97h-20.537z" fill="url(#f)"/>
   <path d="m988.24 565.19v152.98h20.537v-152.98h-20.537z" fill="url(#g)"/>
   <path d="m1008.7 565.19v152.98h20.537v-152.98h-20.537z" fill="url(#h)"/>
   <path d="m1029.2 565.2v152.97h20.537v-152.97h-20.537z" fill="url(#d)"/>
   <path d="m1049.5 565.19v152.98h20.537v-152.98h-20.537z" fill="url(#c)"/>
   <path d="m1070 565.19v152.98h20.537v-152.98h-20.537z" fill="url(#b)"/>
  </g>
  <g transform="matrix(.4489 0 0 1 665.22 0)" fill-rule="evenodd">
   <path d="m947.47 565.2v152.97h20.537v-152.97h-20.537z" fill="url(#e)"/>
   <path d="m967.94 565.2v152.97h20.537v-152.97h-20.537z" fill="url(#f)"/>
   <path d="m988.24 565.19v152.98h20.537v-152.98h-20.537z" fill="url(#g)"/>
   <path d="m1008.7 565.19v152.98h20.537v-152.98h-20.537z" fill="url(#h)"/>
   <path d="m1029.2 565.2v152.97h20.537v-152.97h-20.537z" fill="url(#d)"/>
   <path d="m1049.5 565.19v152.98h20.537v-152.98h-20.537z" fill="url(#c)"/>
   <path d="m1070 565.19v152.98h20.537v-152.98h-20.537z" fill="url(#b)"/>
  </g>
  <g transform="translate(-.00048233 2.3622)">
   <path d="m545.42 181.53c-3.1402 2.7147-6.3249 5.3882-9.3889 8.1875-5.335 4.874-10.541 9.8769-15.638 15s-10.074 10.356-14.923 15.719c-2.0542 2.2719-3.9916 4.6551-6.0002 6.9688-2.7325 3.1476-5.53 6.2454-8.1764 9.4688-4.5917 5.5927-9.0432 11.312-13.368 17.125-0.93485 1.2565-1.7826 2.5772-2.7047 3.8438h175.16v-76.312h-104.96z" fill-rule="evenodd" stroke="#000" stroke-linecap="square" stroke-width="1.541"/>
   <path d="m1029.6 181.53v76.312h174.97c-0.9212-1.2666-1.7681-2.5872-2.7018-3.8438-4.3205-5.8133-8.7669-11.532-13.354-17.125-2.6435-3.2234-5.4379-6.3212-8.1675-9.4688-2.0064-2.3137-3.9415-4.6969-5.9937-6.9688-4.8435-5.3626-9.8153-10.596-14.907-15.719s-10.292-10.126-15.621-15c-3.0607-2.7993-6.242-5.4728-9.3787-8.1875h-104.84z" fill-rule="evenodd" stroke="#000" stroke-linecap="square" stroke-width="1.541"/>
   <path d="m835.22 72.625c-103.03 1.0824-205.76 37.233-289.09 108.44l587.97 0.1875c-85.936-73.516-192.57-109.74-298.88-108.62zm-222.75 108.91v76.312h455.06v-76.312h-455.06z" fill="#fff" stroke="#fff" stroke-linecap="square" stroke-width="1.541"/>
   <path transform="matrix(-.83871,0,0,1,76.503,0)" d="m-972.71 257.84h62.299v76.334h-62.299z" fill-rule="evenodd"/>
   <path transform="matrix(-.83871,0,0,1,76.503,0)" d="m-910.41 257.84h62.299v76.334h-62.299z" fill="#bfbfbf" fill-rule="evenodd"/>
   <path transform="matrix(-.83871,0,0,1,76.503,0)" d="m-785.81 257.85h62.299v76.334h-62.299z" fill="#bfbfbf" fill-rule="evenodd"/>
   <path transform="matrix(-.83871,0,0,1,76.503,0)" d="m-848.11 257.85h62.299v76.334h-62.299z" fill-rule="evenodd"/>
   <path transform="matrix(-.83871,0,0,1,76.503,0)" d="m-723.51 257.85h62.299v76.334h-62.299z" fill-rule="evenodd"/>
   <path transform="matrix(-.83871,0,0,1,76.503,0)" d="m-661.21 257.85h62.299v76.334h-62.299z" fill="#bfbfbf" fill-rule="evenodd"/>
   <path transform="matrix(-.83871,0,0,1,76.503,0)" d="m-536.61 257.85h62.299v76.334h-62.299z" fill="#bfbfbf" fill-rule="evenodd"/>
   <path transform="matrix(-.83871,0,0,1,76.503,0)" d="m-598.91 257.85h62.299v76.334h-62.299z" fill-rule="evenodd"/>
   <path transform="matrix(-.83871,0,0,1,76.503,0)" d="m-1346.5 257.84h62.299v76.334h-62.299z" fill-rule="evenodd"/>
   <path transform="matrix(-.83871,0,0,1,76.503,0)" d="m-1284.2 257.84h62.299v76.334h-62.299z" fill="#bfbfbf" fill-rule="evenodd"/>
   <path transform="matrix(-.83871,0,0,1,76.503,0)" d="m-1159.6 257.85h62.299v76.334h-62.299z" fill="#bfbfbf" fill-rule="evenodd"/>
   <path transform="matrix(-.83871,0,0,1,76.503,0)" d="m-1221.9 257.85h62.299v76.334h-62.299z" fill-rule="evenodd"/>
   <path transform="matrix(-.83871,0,0,1,76.503,0)" d="m-1097.3 257.85h62.299v76.334h-62.299z" fill-rule="evenodd"/>
   <path transform="matrix(-.83871,0,0,1,76.503,0)" d="m-1035 257.85h62.299v76.334h-62.299z" fill="#bfbfbf" fill-rule="evenodd"/>
   <path d="m647.37 181.53h5.0031v78.604h-5.0031z" fill-rule="evenodd"/>
   <path d="m688.31 105.19v76.312h303.38v-76.312h-303.38z" fill-rule="evenodd"/>
  </g>
  <path d="m1560.5 2.3622h75.847v28.863h-75.847z" fill-rule="evenodd"/>
  <path d="m1484.7 2.3622h75.847v28.863h-75.847z" fill="#fff" fill-rule="evenodd"/>
  <path d="m1408.9 2.3622h75.847v28.863h-75.847z" fill-rule="evenodd"/>
  <path d="m1333 2.3622h75.847v28.863h-75.847z" fill="#fff" fill-rule="evenodd"/>
  <path d="m1257.2 2.3622h75.847v28.863h-75.847z" fill-rule="evenodd"/>
  <path d="m1181.3 2.3622h75.847v28.863h-75.847z" fill="#fff" fill-rule="evenodd"/>
  <path d="m1105.5 2.3622h75.847v28.863h-75.847z" fill-rule="evenodd"/>
  <path d="m1029.6 2.3622h75.847v28.863h-75.847z" fill="#fff" fill-rule="evenodd"/>
  <path d="m953.77 2.3622h75.847v28.863h-75.847z" fill-rule="evenodd"/>
  <path d="m877.92 2.3622h75.847v28.863h-75.847z" fill="#fff" fill-rule="evenodd"/>
  <path d="m802.08 2.3622h75.847v28.863h-75.847z" fill-rule="evenodd"/>
  <path d="m726.23 2.3622h75.847v28.863h-75.847z" fill="#fff" fill-rule="evenodd"/>
  <path d="m650.38 2.3622h75.847v28.863h-75.847z" fill-rule="evenodd"/>
  <path d="m574.54 2.3622h75.847v28.863h-75.847z" fill="#fff" fill-rule="evenodd"/>
  <path d="m498.69 2.3622h75.847v28.863h-75.847z" fill-rule="evenodd"/>
  <path d="m422.84 2.3622h75.847v28.863h-75.847z" fill="#fff" fill-rule="evenodd"/>
  <path d="m346.99 2.3622h75.847v28.863h-75.847z" fill-rule="evenodd"/>
  <path d="m271.15 2.3622h75.847v28.863h-75.847z" fill="#fff" fill-rule="evenodd"/>
  <path d="m195.3 2.3622h75.847v28.863h-75.847z" fill-rule="evenodd"/>
  <path d="m119.45 2.3622h75.847v28.863h-75.847z" fill="#fff" fill-rule="evenodd"/>
  <path d="m43.605 2.3622h75.847v28.863h-75.847z" fill-rule="evenodd"/>
  <g transform="translate(0 1021.1)" fill-rule="evenodd">
   <path d="m1560.5 2.3622h75.847v28.863h-75.847z"/>
   <path d="m1484.7 2.3622h75.847v28.863h-75.847z" fill="#fff"/>
   <path d="m1408.9 2.3622h75.847v28.863h-75.847z"/>
   <path d="m1333 2.3622h75.847v28.863h-75.847z" fill="#fff"/>
   <path d="m1257.2 2.3622h75.847v28.863h-75.847z"/>
   <path d="m1181.3 2.3622h75.847v28.863h-75.847z" fill="#fff"/>
   <path d="m1105.5 2.3622h75.847v28.863h-75.847z"/>
   <path d="m1029.6 2.3622h75.847v28.863h-75.847z" fill="#fff"/>
   <path d="m953.77 2.3622h75.847v28.863h-75.847z"/>
   <path d="m877.92 2.3622h75.847v28.863h-75.847z" fill="#fff"/>
   <path d="m802.08 2.3622h75.847v28.863h-75.847z"/>
   <path d="m726.23 2.3622h75.847v28.863h-75.847z" fill="#fff"/>
   <path d="m650.38 2.3622h75.847v28.863h-75.847z"/>
   <path d="m574.54 2.3622h75.847v28.863h-75.847z" fill="#fff"/>
   <path d="m498.69 2.3622h75.847v28.863h-75.847z"/>
   <path d="m422.84 2.3622h75.847v28.863h-75.847z" fill="#fff"/>
   <path d="m346.99 2.3622h75.847v28.863h-75.847z"/>
   <path d="m271.15 2.3622h75.847v28.863h-75.847z" fill="#fff"/>
   <path d="m195.3 2.3622h75.847v28.863h-75.847z"/>
   <path d="m119.45 2.3622h75.847v28.863h-75.847z" fill="#fff"/>
   <path d="m43.605 2.3622h75.847v28.863h-75.847z"/>
  </g>
  <g transform="matrix(.57491 0 0 1 18.536 0)" fill-rule="evenodd">
   <path d="m-32.242 947.17h75.847v76.329h-75.847z"/>
   <path d="m-32.242 870.84h75.847v76.329h-75.847z" fill="#fff"/>
   <path d="m-32.242 794.51h75.847v76.329h-75.847z"/>
   <path d="m-32.242 718.18h75.847v76.329h-75.847z" fill="#fff"/>
   <path d="m-32.242 641.86h75.847v76.329h-75.847z"/>
   <path d="m-32.242 565.53h75.847v76.329h-75.847z" fill="#fff"/>
   <path d="m-32.242 489.2h75.847v76.329h-75.847z"/>
   <path d="m-32.242 412.87h75.847v76.329h-75.847z" fill="#fff"/>
   <path d="m-32.242 336.54h75.847v76.329h-75.847z"/>
   <path d="m-32.242 260.21h75.847v76.329h-75.847z" fill="#fff"/>
   <path d="m-32.242 183.88h75.847v76.329h-75.847z"/>
   <path d="m-32.242 107.55h75.847v76.329h-75.847z" fill="#fff"/>
   <path d="m-32.242 31.225h75.847v76.329h-75.847z"/>
  </g>
  <g transform="matrix(.57491 0 0 1 1654.9 0)" fill-rule="evenodd">
   <path d="m-32.242 947.17h75.847v76.329h-75.847z"/>
   <path d="m-32.242 870.84h75.847v76.329h-75.847z" fill="#fff"/>
   <path d="m-32.242 794.51h75.847v76.329h-75.847z"/>
   <path d="m-32.242 718.18h75.847v76.329h-75.847z" fill="#fff"/>
   <path d="m-32.242 641.86h75.847v76.329h-75.847z"/>
   <path d="m-32.242 565.53h75.847v76.329h-75.847z" fill="#fff"/>
   <path d="m-32.242 489.2h75.847v76.329h-75.847z"/>
   <path d="m-32.242 412.87h75.847v76.329h-75.847z" fill="#fff"/>
   <path d="m-32.242 336.54h75.847v76.329h-75.847z"/>
   <path d="m-32.242 260.21h75.847v76.329h-75.847z" fill="#fff"/>
   <path d="m-32.242 183.88h75.847v76.329h-75.847z"/>
   <path d="m-32.242 107.55h75.847v76.329h-75.847z" fill="#fff"/>
   <path d="m-32.242 31.225h75.847v76.329h-75.847z"/>
  </g>
  <path d="m1251.4 718.18c-0.8584 1.8449-1.6488 3.7312-2.5312 5.5625-3.1806 6.6007-6.5135 13.113-10 19.531s-7.1233 12.743-10.906 18.969-7.7113 12.351-11.781 18.375c-3.1903 4.7222-6.5449 9.3131-9.9063 13.906h-63.33v-76.344z" fill="#fff" fill-rule="evenodd"/>
 </g>
 <path d="m0 0h43.605v28.863h-43.605z" fill="#fff" fill-rule="evenodd"/>
 <path d="m0 1021.1h43.605v28.863h-43.605z" fill="#fff" fill-rule="evenodd"/>
 <path d="m1636.4 1021.1h43.605v28.863h-43.605z" fill="#fff" fill-rule="evenodd"/>
 <path d="m1636.4 0h43.605v28.863h-43.605z" fill="#fff" fill-rule="evenodd"/>
</svg>
