<?xml version='1.0' encoding='utf-8'?>
<svg xmlns="http://www.w3.org/2000/svg" version="1.1" width="1024px" height="768px" viewBox="28 681 1024 768"> <g id="layer1"> <g style="fill:rgb(0,174,199); fill-opacity:1.0; stroke-linejoin: miter"> <path d="M27.999,680.4751C27.86005,680.4751,27.726791,680.5303,27.62854,680.62854C27.530289,680.7268,27.47509,680.86005,27.47509,680.999L27.47609,1449.0C27.47609,1449.2893,27.710651,1449.5239,28.0,1449.5239L1052.001,1449.5249C1052.1399,1449.5249,1052.2732,1449.4697,1052.3715,1449.3715C1052.4697,1449.2732,1052.5249,1449.1399,1052.5249,1449.001L1052.5239,681.0C1052.5239,680.71063,1052.2893,680.4761,1052.0,680.4761L27.999,680.4751 Z"/> </g> <g style="fill:rgb(255,255,255); fill-opacity:1.0; stroke-linejoin: miter"> <path d="M241.54417,1181.7611L254.26888,1177.5547L266.99356,1173.3481Q273.68744,1193.5967,280.38123,1213.8447Q267.6568,1218.0516,254.93236,1222.2585Q248.23822,1202.0099,241.54417,1181.7611"/> </g> <g style="fill:rgb(254,210,185); fill-opacity:1.0; stroke-linejoin: miter"> <path d="M581.42206,1069.9705L607.596,1072.0757L633.76996,1074.1812Q613.9592,1091.297,594.1481,1108.4132L581.42206,1069.9705"/> </g> <g style="fill:rgb(109,168,214); fill-opacity:1.0; stroke-linejoin: miter"> <path d="M343.94986,1060.5457L343.94998,1060.5459L343.9501,1060.5465L343.94998,1060.5459L343.94986,1060.5457L343.94998,1060.5459L343.9501,1060.5465Q343.94998,1060.5459,343.94986,1060.5457"/> </g> <g style="fill:rgb(109,168,214); fill-opacity:1.0; stroke-linejoin: miter"> <path d="M343.94986,1060.5457L343.94998,1060.5459L343.9501,1060.5465L343.94998,1060.5459L343.94986,1060.5457L343.94998,1060.5459L343.9501,1060.5465Q343.94998,1060.5459,343.94986,1060.5457"/> </g> <g style="fill:rgb(109,168,214); fill-opacity:1.0; stroke-linejoin: miter"> <path d="M319.09247,1122.3453L319.0926,1122.3457L319.09283,1122.3461L319.0926,1122.3457L319.09247,1122.3453L319.0926,1122.3457L319.09283,1122.3461Q319.0926,1122.3457,319.09247,1122.3453"/> </g> <g style="fill:rgb(109,168,214); fill-opacity:1.0; stroke-linejoin: miter"> <path d="M319.09247,1122.3453L319.0926,1122.3457L319.09283,1122.3461L319.0926,1122.3457L319.09247,1122.3453L319.0926,1122.3457L319.09283,1122.3461Q319.0926,1122.3457,319.09247,1122.3453"/> </g> <g style="fill:rgb(109,168,214); fill-opacity:1.0; stroke-linejoin: miter"> <path d="M301.70197,1125.9132L301.70215,1125.9136L301.70245,1125.9141L301.70215,1125.9136L301.70197,1125.9132L301.70215,1125.9136L301.70245,1125.9141Q301.70215,1125.9136,301.70197,1125.9132"/> </g> <g style="fill:rgb(24,95,141); fill-opacity:1.0; stroke-linejoin: miter"> <path d="M275.92902,1170.9468L428.688,1120.4458L581.44806,1069.9442Q587.80725,1089.1808,594.16675,1108.4171Q441.40686,1158.9191,288.64832,1209.4209Q282.2887,1190.1837,275.92902,1170.9468"/> </g> <g style="fill:rgb(252,184,38); fill-opacity:1.0; stroke-linejoin: miter"> <path d="M275.92914,1170.9468Q279.9364,1183.0682,283.94373,1195.1903Q436.70062,1144.6896,589.45874,1094.1884Q585.4554,1082.0662,581.4481,1069.9446L428.688,1120.4458L275.92914,1170.9468 Z"/> </g> <g style="fill:rgb(8,41,71); fill-opacity:1.0; stroke-linejoin: miter"> <path d="M616.3893,1072.783L618.69257,1074.307L614.6817,1078.2069L619.2355,1080.7483L617.56647,1085.7161L618.92194,1087.0094Q626.34595,1080.5952,633.76996,1074.1812L616.3893,1072.783 Z"/> </g> <g style="fill:rgb(252,184,38); fill-opacity:1.0; stroke-linejoin: miter"> <path d="M580.91974,1070.1909L580.9204,1070.1907L593.08984,1076.0348L585.9564,1084.2097L596.67694,1086.0847L589.2963,1094.493L580.91974,1070.1909"/> </g> <g style="fill:rgb(24,95,141); fill-opacity:1.0; stroke-linejoin: miter"> <path d="M589.16846,1094.367L589.1688,1094.3667L602.1884,1098.9425Q598.2275,1103.925,594.2667,1108.9077L589.16846,1094.367"/> </g> <g style="fill:rgb(125,139,150); fill-opacity:1.0; stroke-linejoin: miter"> <path d="M260.40637,1174.4415L269.5594,1171.4161L278.7124,1168.3906Q285.7409,1189.6508,292.7694,1210.9111Q283.61652,1213.9376,274.46368,1216.9637Q267.43497,1195.7029,260.40637,1174.4415"/> </g> <g style="fill:rgb(128,128,128); fill-opacity:1.0; stroke-linejoin: miter"> <path d="M525.6589,1089.3295L525.6589,1089.3302C523.08527,1091.332,522.2519,1092.8344,521.81805,1094.6217L521.5636,1094.5599C522.0139,1092.7056,522.8868,1091.1549,525.4983,1089.1232 Z"/> </g> <g style="fill:rgb(0,0,0); fill-opacity:1.0; stroke-linejoin: miter"> <path d="M501.17926,1102.8091L501.17926,1102.8094L512.6906,1099.6265L512.6906,1099.6272C514.5782,1099.8187,515.76306,1101.3344,515.6005,1102.933L515.6005,1102.9333C515.4984,1103.9371,514.8644,1104.9736,513.5393,1105.7354L513.5393,1105.7357L502.58002,1108.7236L502.58002,1108.7241L501.17926,1102.8091L501.17926,1102.8094 M501.17926,1102.8091L501.17926,1102.8094L502.58002,1108.7236L502.58002,1108.7241L513.5393,1105.7354L513.5393,1105.7357C514.8644,1104.9736,515.4984,1103.9371,515.6005,1102.933L515.6005,1102.9333C515.76306,1101.3344,514.5782,1099.8187,512.6906,1099.6265L512.6906,1099.6272L501.17926,1102.8091 Z"/> </g> <g style="fill:rgb(0,0,0); fill-opacity:1.0; stroke-linejoin: miter"> <path d="M514.2322,1100.0095L514.2322,1100.0101L519.36554,1098.219L519.36554,1098.2196C520.8032,1098.9365,521.33307,1100.613,520.82794,1101.6251L520.82794,1101.626C520.70984,1101.8619,520.53485,1102.0629,520.3018,1102.2063L520.3018,1102.2067L515.1437,1104.7917L515.1437,1104.7919C516.11945,1103.421,516.4267,1102.2556,514.23193,1100.0095L514.23193,1100.0101L514.2322,1100.0095L514.2322,1100.0101 M514.2322,1100.0095L514.2322,1100.0101L514.23193,1100.0095L514.23193,1100.0101C516.4267,1102.2556,516.11945,1103.421,515.1437,1104.7917L515.1437,1104.7919L520.3018,1102.2063L520.3018,1102.2067C520.53485,1102.0629,520.70984,1101.8619,520.82794,1101.6251L520.82794,1101.626C521.33307,1100.613,520.8032,1098.9365,519.36554,1098.219L519.36554,1098.2196L514.2322,1100.0095 Z"/> </g> <g style="fill:rgb(0,0,0); fill-opacity:0.99607843; stroke-linejoin: miter"> <path d="M518.8379,1098.1797L518.8379,1098.1803L518.8379,1098.1797L518.8379,1098.1803"/> </g> <g style="fill:rgb(0,0,0); fill-opacity:0.99607843; stroke-linejoin: miter"> <path d="M487.96033,1211.7297L489.29877,1211.7606Q495.33606,1211.8954,498.03876,1212.2151Q501.53107,1212.6117,503.04736,1213.3297Q503.77808,1213.6614,504.2691,1214.0834Q504.63165,1214.2505,505.31213,1215.5127Q505.88922,1216.814,505.58594,1219.663L472.65863,1219.6007L475.1626,1211.1124L487.96033,1211.7297"/> </g> <g style="fill:rgb(90,43,22); fill-opacity:1.0; stroke-linejoin: miter"> <path d="M456.21124,1007.8528L456.61914,1006.3514C455.849,1003.13367,453.56622,1000.9829,449.90167,999.5476C445.5019,997.8243,441.1056,996.9738,436.61383,997.6499C434.0166,998.0408,432.03326,999.3056,430.39587,1000.9306C428.9713,1002.3454,426.92804,1005.5366,424.4715,1010.72253C421.1872,1011.20325,418.66852,1011.7918,416.9709,1012.60815C415.5025,1013.31433,414.81622,1014.3241,414.49353,1015.4357C413.98224,1017.1982,414.91425,1021.639,417.63995,1028.8735L423.02936,1030.0607C422.96057,1036.5703,424.23645,1041.3341,424.23645,1041.3341C425.10834,1044.5896,427.48242,1046.6865,427.48242,1046.6865L439.56927,1035.1969L456.21124,1007.8528 Z"/> </g> <g style="fill:rgb(255,178,152); fill-opacity:1.0; stroke-linejoin: miter"> <path d="M435.91846,1039.9233L436.04047,1040.1581Q436.79053,1041.7079,437.7845,1042.5037Q438.63416,1043.2303,441.2661,1044.1389L443.26404,1042.5068Q445.51404,1039.8739,446.21918,1038.6833Q447.51862,1036.7288,448.47125,1032.8783L451.39972,1033.2294Q452.78223,1034.2078,453.95715,1034.0862Q456.2035,1033.8253,457.19482,1032.5847Q457.8526,1031.7722,456.8717,1029.59Q457.66467,1028.5886,457.8781,1028.0532Q458.09302,1027.4199,457.6145,1026.9177L458.0326,1025.1412Q458.66254,1024.8904,458.67468,1024.5557Q458.71594,1024.1538,458.05914,1023.0604Q458.66486,1022.5689,459.1186,1022.3693L460.8228,1021.8047Q461.14716,1021.69464,461.43036,1021.53125Q461.98718,1021.1584,461.93976,1020.75336Q461.9364,1020.2135,461.1795,1019.23334Q460.83496,1018.71545,458.65204,1016.62885Q458.27496,1016.1945,458.0536,1015.6705Q457.84448,1015.14056,457.8192,1014.48224Q457.94275,1011.42206,457.70312,1010.177Q457.53174,1008.87964,456.43286,1005.60474Q454.77234,1005.51276,453.7611,1005.87177Q453.16302,1006.0474,451.69745,1006.77924L447.45544,1008.4237L449.2129,1011.5331L447.787,1016.7525L443.13733,1019.0517Q440.15082,1015.57794,438.08228,1016.1476Q436.39795,1016.44293,437.04352,1019.9696Q435.67285,1019.11334,435.4275,1019.6425Q435.27264,1019.7449,435.29712,1020.7745Q435.2921,1021.3241,435.74243,1023.953L435.9397,1029.3567L438.60046,1032.1816L435.91846,1039.9233"/> </g> <g style="fill:rgb(255,255,255); fill-opacity:1.0; stroke-linejoin: miter"> <path d="M458.0324,1025.114L458.0324,1025.1144L455.51648,1026.0784Q456.55457,1026.5627,457.5924,1027.0466L458.0324,1025.114"/> </g> <g style="fill:rgb(255,0,0); fill-opacity:1.0; stroke-linejoin: miter"> <path d="M458.61835,1024.1106L455.3034,1025.9922L457.96118,1027.6559Q458.08167,1027.4576,458.04413,1027.3273Q457.9709,1027.1398,457.81287,1027.035Q457.51508,1026.7793,455.9024,1026.0677Q456.4184,1025.8323,456.78015,1025.68L457.98242,1025.1958Q458.30048,1025.0555,458.42444,1024.9607Q458.62982,1024.8256,458.71716,1024.5513L458.61835,1024.1106"/> </g> <g style="fill:rgb(255,0,0); fill-opacity:1.0; stroke-linejoin: miter"> <path d="M450.37183,1004.3008L450.37183,1004.301L450.37183,1004.3008L450.37183,1004.301"/> </g> <g style="fill:rgb(90,43,22); fill-opacity:1.0; stroke-linejoin: miter"> <path d="M457.19305,1014.46L456.88574,1014.3373Q455.9502,1013.95776,455.13715,1013.6751Q454.26355,1013.3862,453.9386,1013.36206Q453.52252,1013.31793,453.29358,1013.40845Q453.0542,1013.47296,452.75214,1013.82623L457.19305,1014.46"/> </g> <g style="fill:rgb(255,255,255); fill-opacity:1.0; stroke-linejoin: miter"> <path d="M456.15436,1015.5628L455.02686,1015.7824L453.8994,1016.00244Q455.06415,1016.28503,456.22833,1016.56824L456.15436,1015.5628"/> </g> <g style="fill:rgb(255,255,255); fill-opacity:1.0; stroke-linejoin: miter"> <path d="M452.48718,1019.22186L452.4873,1019.2221L452.4873,1019.22235L452.48718,1019.22186"/> </g> <g style="fill:rgb(0,0,0); fill-opacity:1.0; stroke-linejoin: miter"> <path d="M456.14734,1015.60004L456.1504,1015.6222Q456.17883,1015.78076,456.23657,1016.61005Q455.98004,1016.6196,455.85724,1016.58765Q455.80768,1016.57556,455.76294,1016.5546L455.71936,1016.5311Q455.67725,1016.50476,455.64124,1016.4666Q455.60565,1016.4283,455.57642,1016.3775L455.54852,1016.3242Q455.52203,1016.2681,455.50006,1016.2034Q455.44434,1016.04395,455.3797,1015.6885L456.14734,1015.60004"/> </g> <g style="fill:rgb(0,0,0); fill-opacity:1.0; stroke-linejoin: miter"> <path d="M422.69025,1010.9994L425.3026,1016.51886Q426.17395,1015.83844,426.60797,1015.61066Q427.0426,1015.36304,427.909,1015.0923L424.89545,1009.61896Q424.4969,1010.40875,424.11304,1010.62274Q423.7807,1010.86383,422.69025,1010.9994"/> </g> <g style="fill:rgb(0,0,0); fill-opacity:1.0; stroke-linejoin: miter"> <path d="M426.3199,1027.7985L426.32007,1027.7991L426.32007,1027.7986L426.3199,1027.7985"/> </g> <g style="fill:rgb(0,0,0); fill-opacity:1.0; stroke-linejoin: miter"> <path d="M410.3354,1095.6382L411.3249,1094.5203Q419.04163,1086.3021,421.89648,1078.6921Q423.3058,1075.2722,424.22827,1068.4015Q424.7881,1064.9137,424.77008,1050.5619Q424.99866,1047.5454,425.14984,1047.1484Q425.3797,1045.4778,426.6479,1043.1914L430.28998,1038.7178Q430.75006,1038.1372,431.89093,1035.4778L446.8396,1038.0623Q444.66577,1042.4622,446.4856,1044.6128Q446.56378,1044.8706,448.0937,1046.2538Q454.87915,1051.398,455.44037,1052.0459L458.76703,1055.2897Q462.11987,1058.6848,470.43805,1069.647Q474.23358,1071.2855,479.03497,1074.197Q485.19672,1077.9951,498.5938,1087.257L509.26282,1093.2294L505.99725,1100.3304L492.67303,1093.6497Q474.36255,1085.2219,469.41614,1083.4412Q468.64893,1083.2941,458.0705,1074.6183Q457.02502,1076.2717,453.52814,1080.3529Q452.7647,1085.6185,448.5381,1091.897Q444.83923,1097.1925,436.35278,1106.9132L410.3354,1095.6382"/> </g> <g style="fill:rgb(60,70,79); fill-opacity:0.99607843; stroke-linejoin: miter"> <path d="M422.06683,1071.2074L422.06702,1071.2078L422.06677,1071.2085L422.06702,1071.2078L422.06683,1071.2074L422.06702,1071.2078L422.06677,1071.2085Q422.06702,1071.2078,422.06683,1071.2074"/> </g> <g style="fill:rgb(60,70,79); fill-opacity:0.99607843; stroke-linejoin: miter"> <path d="M422.06683,1071.2074L422.06702,1071.2078L422.06677,1071.2085L422.06702,1071.2078L422.06683,1071.2074L422.06702,1071.2078L422.06677,1071.2085Q422.06702,1071.2078,422.06683,1071.2074"/> </g> <g style="fill:rgb(90,43,22); fill-opacity:1.0; stroke-linejoin: miter"> <path d="M416.7027,1018.82874L415.91608,1023.2686Q417.15814,1028.4102,418.0782,1030.7399Q419.03027,1032.9961,419.29065,1033.2872Q419.73907,1034.035,420.26154,1034.6136Q421.32678,1035.7355,422.60645,1036.2993Q422.98828,1036.5428,426.95825,1037.8721Q427.28595,1037.9425,428.45898,1038.7825Q429.88757,1039.768,431.76294,1043.6134L446.14233,1056.4208Q441.42303,1049.9688,440.99988,1047.6034Q440.7744,1046.7938,440.7414,1046.0323L440.7602,1045.2839Q440.83173,1044.5487,441.0335,1043.8424L442.16028,1040.2896Q442.48883,1038.408,442.3448,1037.9591Q442.17902,1036.3064,441.04218,1034.3359Q439.9024,1032.3643,438.13812,1030.1886Q436.8761,1028.5769,433.33716,1024.6215L416.7027,1018.82874"/> </g> <g style="fill:rgb(0,0,0); fill-opacity:1.0; stroke-linejoin: miter"> <path d="M408.7473,1097.067L409.36127,1096.7438C412.01263,1095.1182,415.4322,1094.7319,419.62207,1095.577C425.56305,1096.7753,430.35693,1098.6697,434.01312,1101.2528C435.2384,1102.1182,436.73883,1103.364,438.50317,1105.0062L434.29907,1113.9869C461.8966,1117.5082,475.98346,1119.5874,476.5598,1120.2249C483.4519,1121.7606,485.61877,1123.1578,487.57495,1126.4901C489.21594,1129.2856,489.3684,1137.8766,487.59467,1146.3938C486.66565,1150.8552,484.67365,1213.2833,484.67365,1213.2833C470.06366,1217.2686,472.4944,1216.3208,472.4944,1216.3208C475.37427,1211.9622,464.49115,1141.9647,467.1217,1139.0721L435.82263,1139.7755L408.7473,1097.067 Z"/> </g> <g style="fill:rgb(255,178,169); fill-opacity:0.99607843; stroke-linejoin: miter"> <path d="M531.396,1106.4755L531.3959,1106.476L531.3959,1106.4766L531.396,1106.4755"/> </g> <g style="fill:rgb(255,178,152); fill-opacity:1.0; stroke-linejoin: miter"> <path d="M505.83417,1092.6263L510.36487,1094.219L513.61237,1093.138L518.18317,1091.0022L523.3202,1086.5732Q523.8768,1086.098,524.34717,1085.7742Q525.55457,1084.9603,526.42065,1085.3262Q527.5646,1085.8273,526.89844,1086.9882Q526.11084,1088.1866,523.0292,1090.495Q528.3228,1091.6049,529.2994,1092.2358Q530.6835,1092.8843,530.5609,1094.4587L527.8017,1096.8116Q527.81067,1098.5532,527.334,1099.0813Q526.9124,1099.4646,525.8889,1099.3756Q525.4952,1100.7606,524.8644,1101.0892Q524.3256,1101.3126,523.25464,1101.0463Q522.6061,1102.5065,521.8174,1102.6855Q519.7594,1103.2821,519.09,1100.6997Q517.869,1101.7723,516.5234,1102.5206Q515.6188,1102.9995,514.5663,1103.0933Q512.5019,1103.2756,509.1006,1101.1189Q507.74176,1100.2861,505.169,1098.4563L505.83417,1092.6263"/> </g> <g style="fill:rgb(0,0,0); fill-opacity:1.0; stroke-linejoin: miter"> <path d="M409.31647,1095.5962L408.72583,1096.5171Q405.39325,1101.5221,404.51788,1105.6216Q403.52582,1110.4451,404.7798,1116.34Q405.74756,1121.7715,408.9594,1127.109Q411.44727,1130.8679,417.18604,1134.9933Q423.59222,1139.7731,432.3587,1140.0387Q439.08185,1140.7408,464.06372,1137.0627L412.24408,1095.8475L409.31647,1095.5962"/> </g> <g style="fill:rgb(0,0,0); fill-opacity:1.0; stroke-linejoin: miter"> <path d="M411.485,1097.067L412.09894,1096.7438C414.75024,1095.1182,418.16998,1094.7319,422.35974,1095.5769C428.30072,1096.7753,433.09473,1098.6699,436.75092,1101.2528C437.97614,1102.1182,437.21094,1101.9973,438.97528,1103.6395L437.0368,1113.9869C464.63434,1117.5082,478.72113,1119.5875,479.2975,1120.2251C486.18945,1121.7606,488.35632,1123.1577,490.31262,1126.4901C491.9536,1129.2856,492.1059,1137.8766,490.3324,1146.3938C489.40338,1150.8551,487.41138,1213.2833,487.41138,1213.2833C472.8014,1217.2686,475.23218,1216.3208,475.23218,1216.3208C478.11188,1211.9622,467.22888,1141.9647,469.85944,1139.0721L438.56055,1139.7755L411.485,1097.067 Z"/> </g> <g style="fill:rgb(0,0,0); fill-opacity:1.0; stroke-linejoin: miter"> <path d="M467.9619,1029.2949L467.9619,1029.2949L467.96185,1029.295L467.9619,1029.2949"/> </g> <g style="fill:rgb(75,45,35); fill-opacity:1.0; stroke-linejoin: miter"> <path d="M412.67554,1095.6677L428.1831,1100.2898L443.69067,1104.9122Q439.6164,1118.5808,435.54236,1132.2498Q420.03467,1127.6271,404.5271,1123.0049Q408.60132,1109.3363,412.67554,1095.6677"/> </g> <g style="fill:rgb(75,45,35); fill-opacity:1.0; stroke-linejoin: miter"> <path d="M425.58148,1103.364L426.3772,1104.105L427.1729,1104.8462Q441.9193,1089.0116,456.6651,1073.1772Q455.8695,1072.4363,455.07367,1071.6952L425.58148,1103.364"/> </g> <g style="fill:rgb(75,45,35); fill-opacity:1.0; stroke-linejoin: miter"> <path d="M424.71716,1058.9656Q424.60034,1066.0834,424.22827,1068.4015Q423.92596,1070.6522,423.5716,1072.5328L425.81897,1101.9271L427.9873,1101.7616L424.72113,1058.9656 Z"/> </g> <g style="fill:rgb(255,126,0); fill-opacity:1.0; stroke-linejoin: miter"> <path d="M303.6897,973.3549L303.6897,973.35547L303.6897,973.3549L303.6897,973.35547L303.6897,973.3549L303.6897,973.35547L303.6897,973.3549L303.6897,973.35547L303.6897,973.3549L303.6897,973.35547 M303.6897,975.43274L303.6897,975.43353L303.6897,975.43274L303.6897,975.43353L303.6897,975.43274L303.6897,975.43353L303.6897,975.43274L303.6897,975.43353L303.6897,975.43274 Z"/> </g> <g style="fill:rgb(255,255,255); fill-opacity:1.0; stroke-linejoin: miter"> <path d="M860.43774,1189.5481L855.9677,1189.3351Q826.9406,1188.7714,806.53064,1179.4083Q788.41125,1171.7251,751.55396,1138.7266Q704.2074,1197.6405,681.3193,1216.3674Q658.2913,1237.0079,613.80554,1256.8292Q635.55005,1273.782,647.825,1279.8262Q660.1268,1285.4016,662.64594,1285.4917Q667.6241,1286.7314,672.6643,1286.886Q695.36816,1287.7657,734.79974,1260.1566L750.778,1259.3868Q786.4632,1259.845,789.23486,1258.8904Q804.3829,1257.0521,812.41956,1252.7377Q822.24994,1248.6902,834.2623,1233.9176Q841.83264,1225.6538,860.43774,1189.5481"/> </g> <g style="fill:rgb(164,147,147); fill-opacity:0.5686275; stroke-linejoin: miter"> <path d="M721.8932,1267.1438L721.8932,1267.1438Q737.11505,1263.0541,752.3365,1258.963Q742.5848,1257.2467,732.83264,1255.5297L721.8932,1267.1438"/> </g> <g style="fill:rgb(164,147,147); fill-opacity:1.0; stroke-linejoin: miter"> <path d="M733.31726,1261.1339L733.31726,1261.1339Q733.31726,1261.1348,733.31726,1261.1339"/> </g> <g style="fill:rgb(255,255,255); fill-opacity:1.0; stroke-linejoin: miter"> <path d="M449.6043,1312.6805L449.71112,1310.4392Q449.99377,1295.8849,454.6883,1285.6512Q458.54095,1276.5663,475.08575,1258.0858Q445.54675,1234.3461,436.15765,1222.87Q425.8084,1211.324,415.87024,1189.0192Q407.37042,1199.9221,404.3399,1206.0765Q401.5445,1212.2446,401.49945,1213.5078Q400.87793,1216.0037,400.80017,1218.5311Q400.359,1229.9144,414.20178,1249.6853L414.5877,1257.6967Q414.35803,1275.5892,414.8366,1276.9789Q415.7583,1284.5743,417.9215,1288.6039Q419.95068,1293.5331,427.35767,1299.5558Q431.50122,1303.352,449.6043,1312.6805"/> </g> <g style="fill:rgb(164,147,147); fill-opacity:0.5686275; stroke-linejoin: miter"> <path d="M410.69843,1243.2142L410.69836,1243.2147Q412.74896,1250.8462,414.80017,1258.4781Q415.66077,1253.5884,416.52155,1248.699L410.69843,1243.2142"/> </g> <g style="fill:rgb(164,147,147); fill-opacity:1.0; stroke-linejoin: miter"> <path d="M413.7118,1248.9419L413.71167,1248.9419Q413.71124,1248.9419,413.7118,1248.9419"/> </g> <g style="fill:rgb(255,255,255); fill-opacity:1.0; stroke-linejoin: miter"> <path d="M216.70108,994.5923L219.51143,994.0773Q237.83015,991.2522,249.9482,983.5923Q260.75977,977.1897,281.27484,953.17584Q316.24323,986.42694,332.3179,996.3295Q348.64407,1007.432,378.47763,1016.1907Q366.1606,1028.7664,358.9078,1033.6345Q351.598,1038.2089,350.0115,1038.4799Q346.96707,1039.6877,343.791,1040.2142Q329.5002,1042.7018,302.2022,1028.585L292.0266,1029.457Q269.4862,1032.7814,267.65137,1032.413Q257.91022,1032.5383,252.45805,1030.4918Q245.8937,1028.7671,237.03687,1020.4408Q231.54381,1015.8558,216.70108,994.5923"/> </g> <g style="fill:rgb(164,147,147); fill-opacity:0.5686275; stroke-linejoin: miter"> <path d="M310.9629,1031.9089L310.9629,1031.9089Q300.9837,1030.6155,291.00458,1029.3213Q297.029,1027.4058,303.05347,1025.4901L310.9629,1031.9089"/> </g> <g style="fill:rgb(164,147,147); fill-opacity:1.0; stroke-linejoin: miter"> <path d="M303.22357,1029.0773L303.22357,1029.0773Q303.22363,1029.078,303.22357,1029.0773"/> </g> <g> <g style="fill:rgb(255,255,255); fill-opacity:1.0; stroke-linejoin: miter"> <path d="M857.28754,1072.2732L854.44257,1072.5369Q835.9458,1073.7274,823.1966,1080.2834Q811.8601,1085.703,789.2979,1107.8044Q757.41364,1071.5852,742.2798,1060.2968Q727.0014,1047.7914,698.0615,1036.4235Q711.44464,1024.9889,719.10034,1020.78253Q726.78644,1016.8741,728.39087,1016.7447Q731.53015,1015.81146,734.74054,1015.56824Q749.1957,1014.35724,775.1351,1030.8369L785.3479,1030.8701Q808.09436,1029.5569,809.88916,1030.086Q819.60315,1030.8248,824.8526,1033.3462Q831.23816,1035.646,839.32227,1044.7238Q844.38745,1049.7778,857.28754,1072.2732"/> </g> <g style="fill:rgb(164,147,147); fill-opacity:0.5686275; stroke-linejoin: miter"> <path d="M766.7033,1026.75L766.7033,1026.7498Q776.52875,1028.9226,786.354,1031.096Q780.1835,1032.4701,774.01306,1033.8441L766.7033,1026.75"/> </g> <g style="fill:rgb(164,147,147); fill-opacity:1.0; stroke-linejoin: miter"> <path d="M774.16144,1030.2562L774.16144,1030.256Q774.16144,1030.2554,774.16144,1030.2562"/> </g> </g> <g style="fill:rgb(255,255,255); fill-opacity:1.0; stroke-linejoin: miter"> <path d="M463.91406,882.3164L461.08344,881.928Q442.65656,879.9273,430.2071,872.8184Q419.11932,866.9072,397.54785,843.8377Q364.106,878.6235,348.4916,889.2371Q332.67966,901.06036,303.26898,911.14813Q316.1377,923.1588,323.60153,927.69696Q331.10904,931.9385,332.7061,932.13794Q335.8016,933.2082,338.9982,933.59186Q353.38614,935.43585,380.02347,920.1095L390.22797,920.524Q412.89484,922.8345,414.71136,922.384Q424.4483,922.0719,429.80322,919.78326Q436.28357,917.76556,444.75812,909.0511Q450.03992,904.2243,463.91406,882.3164"/> </g> <g style="fill:rgb(164,147,147); fill-opacity:0.5686275; stroke-linejoin: miter"> <path d="M371.4207,923.8227L371.4207,923.8229Q381.33194,922.08307,391.24298,920.3427Q385.13867,918.69934,379.03433,917.0559L371.4207,923.8227"/> </g> <g style="fill:rgb(164,147,147); fill-opacity:1.0; stroke-linejoin: miter"> <path d="M379.02536,920.647L379.0253,920.6472Q379.02524,920.6475,379.02536,920.647"/> </g> <g> <g style="fill:rgb(255,255,255); fill-opacity:1.0; stroke-linejoin: miter"> <path d="M731.7986,882.55347L730.0004,882.72015Q718.3094,883.47253,710.25134,887.61633Q703.08606,891.04175,688.8256,905.0111Q668.673,882.1185,659.1075,874.98364Q649.4508,867.07965,631.1592,859.89453Q639.618,852.66724,644.45685,850.0086Q649.3149,847.53815,650.32904,847.4564Q652.3132,846.8666,654.3422,846.7129Q663.4787,845.94745,679.8738,856.3634L686.3289,856.3844Q700.7058,855.5543,701.8403,855.88885Q707.98,856.35583,711.29803,857.9495Q715.334,859.403,720.44354,865.1408Q723.645,868.33514,731.7986,882.55347"/> </g> <g style="fill:rgb(164,147,147); fill-opacity:0.5686275; stroke-linejoin: miter"> <path d="M674.5445,853.78015L674.5445,853.77997Q680.7547,855.1534,686.9647,856.52716Q683.06464,857.3956,679.1647,858.2641L674.5445,853.78015"/> </g> <g style="fill:rgb(164,147,147); fill-opacity:1.0; stroke-linejoin: miter"> <path d="M679.2584,855.9963L679.2584,855.99615Q679.2584,855.9958,679.2584,855.9963"/> </g> </g> </g> </svg>